<?xml version="1.0" encoding="UTF-8"?>
<svg version="1.1" xmlns="http://www.w3.org/2000/svg" width="1667" height="1668">
<path d="M0 0 C1.19710602 -0.00004028 2.39421204 -0.00008057 3.62759399 -0.00012207 C6.15770724 0.00523507 8.68781995 0.02282569 11.21777344 0.05175781 C15.08059875 0.09352334 18.94167497 0.09283222 22.8046875 0.0859375 C25.26563706 0.09643341 27.72657767 0.10937365 30.1875 0.125 C31.33874359 0.12520142 32.48998718 0.12540283 33.67611694 0.12561035 C41.20981006 0.23614789 46.57991091 0.74677951 52.3515625 5.96875 C59.58911243 15.65746205 61.73365437 29.64633314 64.578125 41.16796875 C65.03327061 42.98489655 65.48919834 44.80162859 65.94584656 46.61817932 C66.91649243 50.48534058 67.88229208 54.35366534 68.84414673 58.22302246 C70.37624125 64.38549133 71.91967078 70.54508458 73.46557617 76.70410156 C73.72537356 77.73924833 73.98517096 78.7743951 74.252841 79.84090996 C74.77880297 81.9365039 75.30479857 84.0320894 75.83082771 86.12766647 C76.62287317 89.28443579 77.41389342 92.44146054 78.20469666 95.59854126 C82.56074966 112.98162797 87.00456613 130.34111403 91.48393631 147.69276047 C103.76410793 195.27567239 115.72741181 242.93937737 127.7265625 290.59375 C129.94584699 286.8016431 130.78466293 282.69451285 131.76000977 278.45849609 C132.05215189 277.21728705 132.05215189 277.21728705 132.35019588 275.95100307 C133.0025312 273.17415323 133.64769455 270.39568596 134.29296875 267.6171875 C134.75910625 265.62690224 135.22571125 263.63672642 135.69274902 261.64665222 C136.69989224 257.35104585 137.70393381 253.05473054 138.70559692 248.75784302 C140.30378849 241.90239449 141.90893194 235.04858598 143.51538086 228.19506836 C145.19851152 221.01314696 146.88127343 213.83114062 148.56178284 206.64860535 C152.47781226 189.91219246 156.40812449 173.1791946 160.3515625 156.44921875 C160.62046484 155.30834053 160.88936718 154.16746231 161.16641808 152.99201202 C164.09218549 140.58026335 167.02164898 128.16939048 169.9543457 115.75927734 C170.72614063 112.49298792 171.49791852 109.22669448 172.2696743 105.96039581 C172.77226239 103.83342148 173.274918 101.70646311 173.7776432 99.57952118 C176.65533116 87.40302084 179.5182169 75.22330193 182.35032654 63.03611755 C183.5774675 57.75582294 184.81224835 52.4773271 186.04968739 47.19943714 C186.83037517 43.86720841 187.60516684 40.53387968 188.37136841 37.19827271 C189.18171293 33.67113046 190.0069817 30.14780646 190.8359375 26.625 C191.17016975 25.14083839 191.17016975 25.14083839 191.51115417 23.62669373 C195.09062371 8.63111447 195.09062371 8.63111447 200.48724365 4.1229248 C204.85605418 1.56471413 208.73424378 0.47068371 213.72949219 0.43261719 C214.74775085 0.42300964 215.76600952 0.4134021 216.81512451 0.40350342 C217.9151178 0.39925354 219.01511108 0.39500366 220.1484375 0.390625 C221.28178528 0.38492493 222.41513306 0.37922485 223.58282471 0.37335205 C225.98359239 0.36389972 228.38437305 0.35736715 230.78515625 0.35351562 C234.44814891 0.34382517 238.11057692 0.31280938 241.7734375 0.28125 C244.1067675 0.27471833 246.44010152 0.2694685 248.7734375 0.265625 C250.41128204 0.2471048 250.41128204 0.2471048 252.08221436 0.22821045 C259.55308621 0.24995992 264.7537343 0.82832842 270.4140625 6.09375 C275.85005424 13.30335565 277.58201128 23.35366452 279.58203125 31.97949219 C279.8405635 33.07006361 280.09909575 34.16063503 280.3654623 35.28425407 C281.22130833 38.90158704 282.06769241 42.52106421 282.9140625 46.140625 C283.52661438 48.73828589 284.13969283 51.33581722 284.75343323 53.93319702 C286.06669702 59.49564865 287.37513315 65.0592174 288.6802063 70.62359619 C290.56586498 78.66334134 292.45904519 86.70130077 294.35400736 94.73885751 C297.57131812 108.38615336 300.78166944 122.03507749 303.98840201 135.68486238 C306.59950201 146.79924017 309.2126938 157.9131227 311.82861328 169.02636719 C311.99457528 169.73143654 312.16053728 170.43650589 312.33152843 171.16294098 C313.32258914 175.3732768 314.3137292 179.58359393 315.30489397 183.79390526 C316.74310783 189.90326263 318.18119087 196.01265078 319.61914062 202.12207031 C319.77330861 202.77707394 319.9274766 203.43207756 320.08631635 204.10692978 C322.33113811 213.64468439 324.57347527 223.1830212 326.81445312 232.72167969 C327.6487429 236.27188306 328.48306698 239.82207838 329.31739616 243.37227249 C330.06852489 246.56931758 330.8190187 249.76651121 331.56947327 252.9637146 C334.91009917 267.18461676 338.30554898 281.39197892 341.7265625 295.59375 C342.14520821 293.96555077 342.14520821 293.96555077 342.5723114 292.30445862 C365.05513575 204.86763843 365.05513575 204.86763843 373.28515625 173.12109375 C373.60599591 171.88346157 373.60599591 171.88346157 373.93331718 170.62082672 C376.02834279 162.54055867 378.12572327 154.46090551 380.22656918 146.38214874 C381.28182241 142.32392376 382.33642042 138.26552876 383.390625 134.20703125 C383.60050112 133.39908867 383.81037724 132.59114609 384.02661324 131.7587204 C387.50196454 118.37353431 390.93466467 104.97765528 394.35602951 91.57857895 C396.00253118 85.13420173 397.65366177 78.69100844 399.30467415 72.24778557 C400.89853238 66.02495573 402.48446041 59.80017477 404.06447792 53.57381725 C405.04671341 49.71104658 406.03648068 45.85023401 407.02821732 41.98989296 C407.48609051 40.20115312 407.94085057 38.41161288 408.39216232 36.62120628 C414.78104313 11.29316758 414.78104313 11.29316758 421.7265625 3.59375 C428.36740519 0.19825018 434.56477411 0.12634499 441.92578125 0.125 C443.07899368 0.11738647 444.23220612 0.10977295 445.42036438 0.10192871 C447.8467086 0.09116591 450.273099 0.08825897 452.69946289 0.09277344 C456.41305076 0.09374973 460.12459846 0.0519979 463.83789062 0.0078125 C466.20051654 0.00260806 468.56314961 -0.00008274 470.92578125 0 C472.03418869 -0.01639526 473.14259613 -0.03279053 474.28459167 -0.04968262 C481.95850062 0.01931816 481.95850062 0.01931816 485.92041016 2.98242188 C489.25201223 7.79923936 488.44161838 11.9573856 487.7265625 17.59375 C487.04288041 20.61252789 486.18422328 23.57094343 485.30859375 26.5390625 C485.04695435 27.43932159 484.78531494 28.33958069 484.51574707 29.26712036 C480.90088558 41.5760905 477.00230571 53.79971789 473.131073 66.02987671 C470.67738175 73.78182462 468.23537356 81.53745901 465.79296875 89.29296875 C465.41548083 90.49123889 465.41548083 90.49123889 465.0303669 91.71371651 C459.74858051 108.48309338 454.53917569 125.27453877 449.34701538 142.07184601 C441.81137854 166.45019858 434.22547607 190.81197826 426.57886887 215.15575027 C420.12902589 235.69012358 413.72627083 256.23851878 407.36670589 276.80103588 C405.72360501 282.11345228 404.07851779 287.42524966 402.43188477 292.73657227 C402.20587743 293.46558778 401.97987009 294.19460329 401.74701405 294.94571018 C400.63752642 298.52424692 399.52778403 302.10270456 398.41786194 305.68110657 C396.13233273 313.0508706 393.85406129 320.42281692 391.584198 327.79742432 C390.38755651 331.677 389.18181276 335.55369094 387.97265625 339.42938232 C387.44400116 341.13047215 386.91925736 342.83278373 386.39892578 344.53643799 C380.1555343 364.96561148 380.1555343 364.96561148 372.7265625 369.03125 C368.28164414 371.02967096 363.85381564 371.71315316 359.00317383 371.75488281 C358.09485306 371.76449036 357.18653229 371.7740979 356.25068665 371.78399658 C355.27979599 371.78824646 354.30890533 371.79249634 353.30859375 371.796875 C352.29617111 371.80257507 351.28374847 371.80827515 350.24064636 371.81414795 C348.09981322 371.82358043 345.95896568 371.83012496 343.81811523 371.83398438 C340.56793374 371.84366402 337.31839193 371.87469389 334.06835938 371.90625 C331.98177456 371.91278345 329.89518525 371.91803258 327.80859375 371.921875 C326.84782425 371.9342218 325.88705475 371.9465686 324.89717102 371.95928955 C317.28173944 371.93455725 309.70898331 371.25199463 303.8515625 366.03125 C297.30233458 356.57323331 295.51226145 344.24289004 292.921875 333.26171875 C292.44983898 331.28612372 291.97710627 329.31069504 291.5037384 327.3354187 C290.48236898 323.06710753 289.4657601 318.79770083 288.45285034 314.52737427 C286.83089201 307.68956569 285.19859082 300.85425214 283.56469727 294.01928711 C281.51356755 285.43590315 279.46501912 276.85191041 277.41944218 268.26720142 C273.19156519 250.52551215 268.9413984 232.78921572 264.68359375 215.0546875 C264.51600524 214.35663789 264.34841673 213.65858828 264.17574978 212.93938565 C262.66248281 206.63635377 261.14903512 200.33336529 259.63531494 194.03044224 C257.52219801 185.23153068 255.41059204 176.43225797 253.30021 167.63269007 C252.52814034 164.4136269 251.75583775 161.19461961 250.98358154 157.9756012 C249.80772469 153.07412257 248.63274192 148.17243557 247.45831299 143.27061462 C245.02411331 133.116858 242.58168818 122.96562056 240.08251953 112.82763672 C239.69518342 111.2515848 239.30785887 109.67553004 238.92054749 108.09947205 C238.24050168 105.33358359 237.55313304 102.56967997 236.86058044 99.80690002 C236.4279464 98.05094765 236.4279464 98.05094765 235.98657227 96.25952148 C235.74012466 95.27273911 235.49367706 94.28595673 235.23976135 93.26927185 C234.73523383 90.63895728 234.62855519 88.26436848 234.7265625 85.59375 C234.0665625 85.59375 233.4065625 85.59375 232.7265625 85.59375 C232.60462021 86.88887512 232.48267792 88.18400024 232.35704041 89.51837158 C231.81257308 94.38818241 230.81002734 99.04710167 229.63891602 103.79980469 C229.32013741 105.12265 229.32013741 105.12265 228.99491882 106.47221947 C228.28693991 109.40463297 227.5711589 112.33508484 226.85546875 115.265625 C226.34452183 117.37600207 225.83411409 119.48650975 225.32420349 121.59713745 C224.22707401 126.13428913 223.12666959 130.67062886 222.02368164 135.20635986 C219.365732 146.13764011 216.72498988 157.07308434 214.08204269 168.00799942 C213.16035888 171.82054069 212.23801028 175.6329207 211.31558228 179.44528198 C205.00557182 205.53308365 198.7728086 231.63918529 192.5532341 257.74867249 C191.47509792 262.27431013 190.39644391 266.79982428 189.31776524 271.32533264 C188.54099147 274.58455661 187.76451137 277.84385045 186.98805237 281.10314941 C185.99373231 285.27654568 184.99806221 289.44961633 184.00132751 293.62243652 C181.84491046 302.65615058 179.69771852 311.69157069 177.59698486 320.73842049 C176.69198546 324.63373077 175.7808125 328.52758577 174.8692627 332.42136765 C174.44758503 334.23111017 174.02909986 336.04160014 173.61413574 337.85289383 C168.25436605 361.24517986 168.25436605 361.24517986 160.7265625 368.59375 C154.91203728 371.36161112 148.69071321 370.9174627 142.390625 370.9296875 C141.1973056 370.9363443 140.00398621 370.9430011 138.77450562 370.94985962 C136.25463397 370.95996768 133.73473565 370.96467721 131.21484375 370.96435547 C127.37194463 370.96872682 123.53019599 371.0050636 119.6875 371.04296875 C117.23437891 371.0488377 114.78125239 371.05280657 112.328125 371.0546875 C111.18517975 371.06905853 110.0422345 371.08342957 108.86465454 371.09823608 C102.31802385 371.0609773 97.10430896 370.56627762 91.7265625 366.59375 C85.37431323 359.84438385 83.21706065 349.76569898 80.6015625 341.09375 C80.0950537 339.45013769 79.58752202 337.80684034 79.07910156 336.16381836 C77.60796293 331.39280643 76.15668125 326.61594071 74.70959473 321.83758545 C73.67855496 318.43533348 72.64386181 315.03420893 71.60839844 311.63330078 C67.25366426 297.32640275 62.91982011 283.01325605 58.59514046 268.69724846 C53.26567439 251.05639495 47.91031542 233.42343016 42.55186462 215.79136276 C41.78657133 213.27305244 41.02138111 210.75471083 40.25622559 208.23635864 C33.89072236 187.28571378 27.51986205 166.33670413 21.14305305 145.38949776 C19.66250589 140.52601595 18.18223794 135.66244923 16.70214844 130.79882812 C16.27778124 129.40436806 15.85341397 128.00990802 15.42904663 126.615448 C14.78624068 124.50319861 14.14344065 122.39094741 13.50065994 120.27869034 C10.83979152 111.53484445 8.17772755 102.79136397 5.51416016 94.04833984 C3.00455561 85.81066473 0.49642603 77.57254195 -2.01019859 69.33395958 C-3.36187341 64.89159126 -4.71424615 60.44943822 -6.06835938 56.0078125 C-7.33381758 51.85694269 -8.5974062 47.70550831 -9.85959816 43.55364418 C-10.32445407 42.02573039 -10.78998938 40.4980231 -11.25626183 38.970541 C-17.55542396 18.33117624 -17.55542396 18.33117624 -17.7109375 11.40625 C-17.75089844 10.42269531 -17.79085937 9.43914062 -17.83203125 8.42578125 C-17.2362385 5.40515365 -16.36384665 3.76497292 -14.12312317 1.64726257 C-9.91438465 -0.74987929 -4.70083166 -0.06671159 0 0 Z " fill="#252F3E" transform="translate(616.2734375,469.40625)"/>
<path d="M0 0 C3.98997723 1.5199742 7.57477694 3.5898169 11.25 5.75 C13.38668803 6.95578361 15.52340742 8.16151163 17.66015625 9.3671875 C18.72637207 9.97916992 19.79258789 10.59115234 20.89111328 11.22167969 C25.45705389 13.83345222 30.06807792 16.35937119 34.6875 18.875 C35.57695312 19.36033203 36.46640625 19.84566406 37.3828125 20.34570312 C90.1983445 49.06275191 145.31684715 73.20951457 201.97698975 93.28314209 C203.35595991 93.77178305 204.73456699 94.26144957 206.112854 94.75201416 C292.44406238 125.47226874 382.61703733 146.53121867 541.71795654 163.84570312 C543.97909696 163.99858667 546.23976932 164.15742789 548.50048828 164.31640625 C597.43385151 167.68045765 647.6438157 167.87861348 696.55792236 164.18359375 C699.18128228 163.98637132 701.8051844 163.7976741 704.42919922 163.609375 C806.1316706 156.21703182 906.46432418 136.16615336 1089.22192383 72.64208984 C1090.32560303 72.17625488 1091.42928223 71.71041992 1092.56640625 71.23046875 C1093.52490479 70.82207764 1094.48340332 70.41368652 1095.47094727 69.99291992 C1101.90021237 67.46875531 1109.26999022 66.61003991 1115.8125 69.25 C1121.36231562 72.2969576 1124.81554684 74.90652539 1127 81 C1127.99214683 87.52155052 1126.81054983 92.64527708 1123 98 C1117.41930929 103.60376631 1111.12320052 108.27720419 1104.625 112.75 C1103.7592334 113.34997803 1102.8934668 113.94995605 1102.00146484 114.56811523 C1031.16421356 163.30007937 950.74164721 197.81743354 676 256 C674.95752106 256.09248016 674.95752106 256.09248016 673.89398193 256.18682861 C629.16269738 260.14048555 582.73466939 259.67906727 538 256 C536.36409738 255.86976237 534.72819234 255.7395552 533.09228516 255.609375 C445.63640965 248.53814842 359.97937977 229.49734191 147 137 C144.82684587 135.73563763 142.65366767 134.47131664 140.48046875 133.20703125 C105.43044888 112.71702322 72.01115504 89.96467437 40 65 C38.85028509 64.10934315 37.70054472 63.21871916 36.55078125 62.328125 C30.14146866 57.34575476 23.84869293 52.25483497 17.67919922 46.97802734 C14.374591 44.15196902 11.02235878 41.40237607 7.625 38.6875 C2.92015909 34.85701006 -1.55670499 30.81493863 -6 26.6875 C-6.64759277 26.08832764 -7.29518555 25.48915527 -7.96240234 24.87182617 C-13.2900433 19.87531729 -16.59705817 16.65589481 -17 9 C-16.24760973 5.76472183 -15.17173854 4.19857268 -13 1.6875 C-8.62812023 -0.77168237 -4.92178745 -0.7209583 0 0 Z " fill="#FF9900" transform="translate(223,951)"/>
<path d="M0 0 C0.76231934 0.13921875 1.52463867 0.2784375 2.31005859 0.421875 C24.67342199 4.64709826 46.07522223 13.56858498 63 29 C63.72703125 29.65742188 64.4540625 30.31484375 65.203125 30.9921875 C70.27514878 35.81254597 74.22438033 41.12585823 78 47 C78.57621094 47.87011719 79.15242188 48.74023438 79.74609375 49.63671875 C96.24707283 75.98683457 99.11191183 108.51963417 99.17358398 138.83203125 C99.17991373 140.24518528 99.18668205 141.65833739 99.19384766 143.07148743 C99.20835586 146.08323758 99.22014459 149.09498091 99.22979546 152.10675049 C99.24547554 156.89460658 99.26942331 161.68240102 99.29469299 166.47021484 C99.36529275 180.074667 99.4254006 193.67915354 99.47680664 207.28369141 C99.50536292 214.82189549 99.5408715 222.36003712 99.58346039 229.89817524 C99.60554716 233.86641417 99.6241878 237.83459693 99.63390923 241.80288696 C99.71573395 273.91273747 101.10411125 301.58422842 115.8515625 330.6796875 C119.07039912 337.16312618 121.75479584 342.71748662 120 350 C115.1245836 358.36990884 105.58595503 363.32629806 97.6875 368.4375 C96.29032079 369.35506263 94.89383028 370.27367486 93.49804688 371.19335938 C79.55077898 380.35538974 79.55077898 380.35538974 69 379 C65.74116021 377.54297607 63.49458293 375.52609345 61 373 C60.35675781 372.36964844 59.71351563 371.73929688 59.05078125 371.08984375 C50.62597103 362.23468959 44.65314996 351.46556558 38.9375 340.75 C38.54312744 340.01072266 38.14875488 339.27144531 37.74243164 338.50976562 C35 333.25707237 35 333.25707237 35 331 C32.553704 333.43765184 30.11573757 335.88070735 27.7109375 338.359375 C21.81665184 344.39165397 15.67776485 349.850348 9 355 C7.44539063 356.20462891 7.44539063 356.20462891 5.859375 357.43359375 C-26.95448707 382.20527056 -69.00746259 391.03023602 -109.50585938 386.17993164 C-133.99260658 382.74475691 -154.96417311 372.98021829 -173 356 C-173.60585938 355.47019531 -174.21171875 354.94039062 -174.8359375 354.39453125 C-194.05005176 336.84924851 -201.70368262 308.86966157 -203.12548828 283.78613281 C-204.37300473 254.5353199 -197.67909645 225.35575516 -178 203 C-177.34773438 202.20464844 -176.69546875 201.40929687 -176.0234375 200.58984375 C-153.77248816 174.2970553 -119.71632873 161.63453331 -86.19308472 158.18045044 C-78.52444228 157.54946255 -70.8139755 157.60782062 -63.125 157.625 C-62.16224152 157.62587616 -61.19948303 157.62675232 -60.20755005 157.62765503 C-30.13012546 157.7172958 -1.32399541 162.68529123 28 169 C28.07531413 162.79681928 28.12913969 156.59391654 28.16479492 150.39038086 C28.17969083 148.2890966 28.20001441 146.18784234 28.22631836 144.08666992 C28.52103465 119.90259753 27.08628089 93.23240683 9.875 74.3125 C-11.00446596 54.93744971 -42.6471963 54.97417576 -69.31005859 55.84033203 C-97.18047508 57.04631671 -124.51418993 66.03837412 -150.33203125 76.0625 C-151.18337646 76.38863281 -152.03472168 76.71476563 -152.91186523 77.05078125 C-154.48874131 77.65846231 -156.06051866 78.27965175 -157.62524414 78.91796875 C-162.71560181 80.88954949 -167.53597444 81.80821754 -173 81 C-176.03215675 78.80168636 -176.81654398 77.55036806 -178 74 C-178.12079288 71.35060961 -178.1881078 68.72833997 -178.203125 66.078125 C-178.20882507 65.29991394 -178.21452515 64.52170288 -178.22039795 63.71990967 C-178.22984056 62.07240149 -178.236379 60.42487448 -178.24023438 58.77734375 C-178.24991076 56.27309588 -178.280928 53.76967929 -178.3125 51.265625 C-178.31903353 49.66146318 -178.32428263 48.05729552 -178.328125 46.453125 C-178.3404718 45.71120911 -178.3528186 44.96929321 -178.36553955 44.20489502 C-178.34111171 38.42139762 -177.21017951 33.69209835 -173.44140625 29.1015625 C-129.93589338 -5.08780104 -52.5442566 -9.9858837 0 0 Z M-113 228 C-126.16356993 243.21595449 -130.27645434 260.16586334 -129 280 C-128.00212801 288.70536178 -126.39219774 297.32112368 -122 305 C-121.57976562 305.74507812 -121.15953125 306.49015625 -120.7265625 307.2578125 C-113.48519641 319.06003899 -102.49241054 326.07140166 -89.3125 329.875 C-62.79569228 335.18472049 -31.47681013 329.37566665 -8.37890625 315.32421875 C10.53110438 302.70097181 22.86133178 286.31666545 28 264 C29.87034208 253.45532283 30.25890927 243.22849932 30.125 232.5625 C30.11492845 231.13737623 30.10581014 229.7122454 30.09765625 228.28710938 C30.07602292 224.85792154 30.04173497 221.42900933 30 218 C-6.56607669 202.38469614 -82.05334607 197.05334607 -113 228 Z " fill="#252F3E" transform="translate(461,463)"/>
<path d="M0 0 C0.74899567 -0.00067474 1.49799133 -0.00134949 2.26968384 -0.00204468 C35.14012477 0.04470401 83.29023014 4.04471016 108.23828125 28.375 C114.77526332 35.86366681 114.08109105 45.18245093 114.125 54.5625 C114.1559375 56.19735352 114.1559375 56.19735352 114.1875 57.86523438 C114.21836333 64.28094826 114.02434847 70.49663417 110.875 76.25 C106.52605683 79.14929545 102.98359626 78.90828891 97.875 78.25 C94.07705004 77.09567057 90.45785044 75.59069228 86.80175781 74.05029297 C48.84749684 58.2857127 1.70210142 50.31699308 -37.91796875 64.86328125 C-42.64094581 66.90549423 -46.91414948 69.30002563 -51.125 72.25 C-52.1975 72.9925 -53.27 73.735 -54.375 74.5 C-62.7718221 82.8968221 -66.08489167 93.49379918 -66.5625 105.1875 C-66.25489008 115.39212466 -63.19033177 124.8010303 -56.125 132.25 C-55.53460937 132.89195312 -54.94421875 133.53390625 -54.3359375 134.1953125 C-44.62672974 143.7545711 -31.6456906 148.91616744 -19.015625 153.41015625 C-17.94342712 153.79377319 -16.87122925 154.17739014 -15.76654053 154.57263184 C-7.11504987 157.6281682 1.60410045 160.44796045 10.359375 163.1875 C11.02139923 163.39469728 11.68342346 163.60189457 12.36550903 163.81537056 C18.489043 165.72941511 24.61620165 167.6316745 30.74755859 169.52050781 C56.38889005 177.42853491 82.16613663 185.48397511 102.875 203.25 C103.88433594 204.02537109 103.88433594 204.02537109 104.9140625 204.81640625 C121.6363109 218.10759572 130.84824903 240.67501886 133.875 261.25 C135.48618156 292.14074468 130.97358533 320.51536477 110.33984375 344.53515625 C80.6674448 377.21711706 40.54825127 390.39295852 -2.8828125 393.1015625 C-42.64670185 394.80269146 -100.66440458 390.36089942 -133.125 364.25 C-138.37471833 359.37449784 -140.86113453 354.82660853 -141.3996582 347.52709961 C-141.41939074 346.15229502 -141.42757901 344.77728877 -141.42578125 343.40234375 C-141.43006638 342.66802628 -141.4343515 341.9337088 -141.43876648 341.17713928 C-141.44448056 339.6333214 -141.44503172 338.08947661 -141.44067383 336.5456543 C-141.43750441 334.19077658 -141.4610402 331.8371455 -141.48632812 329.48242188 C-141.48860058 327.97656407 -141.48930486 326.47070292 -141.48828125 324.96484375 C-141.497491 324.26576401 -141.50670074 323.56668427 -141.51618958 322.84642029 C-141.47495918 318.47129851 -140.81979758 315.71857872 -138.125 312.25 C-133.77159104 309.34772736 -130.23889119 309.57841059 -125.125 310.25 C-120.52802003 311.64018667 -116.16409669 313.49159554 -111.75 315.375 C-109.25082099 316.40241248 -106.74509993 317.413267 -104.23828125 318.421875 C-103.02092285 318.91236328 -101.80356445 319.40285156 -100.54931641 319.90820312 C-60.07980853 335.76592559 -6.04705138 342.75091433 34.875 325.25 C47.52269036 319.21248675 56.89472631 309.92711205 61.75 296.6875 C64.69426277 285.49224935 64.05633082 272.62799103 58.875 262.25 C48.64791372 245.37265813 28.77455127 238.41523443 10.875 232.6875 C9.35072294 232.18864946 7.82672461 231.6889466 6.30297852 231.18847656 C-2.92635556 228.17364417 -12.19532066 225.28889394 -21.47265625 222.42578125 C-22.52641449 222.09972397 -23.58017273 221.77366669 -24.66586304 221.43772888 C-29.84389567 219.83631143 -35.02469073 218.24566625 -40.21289062 216.67749023 C-62.42923778 209.89817908 -84.39674104 201.69799377 -102.125 186.25 C-103.13046875 185.45916016 -103.13046875 185.45916016 -104.15625 184.65234375 C-121.76989976 170.42862262 -133.92726847 145.90268365 -136.875 123.671875 C-139.00079581 94.57504488 -133.76909356 69.13354801 -114.796875 46.46875 C-112.62103903 44.01168354 -110.39214532 41.62269212 -108.125 39.25 C-107.31869141 38.34894531 -107.31869141 38.34894531 -106.49609375 37.4296875 C-80.05715995 8.93660095 -37.16848711 0.03025038 0 0 Z " fill="#252F3E" transform="translate(1274.125,458.75)"/>
<path d="M0 0 C5.25124491 4.71265569 7.16305041 10.98633928 7.61450195 17.89697266 C9.0078718 85.07849409 -17.00400346 155.2846103 -63.5625 204.1953125 C-76.65155851 217.53214039 -76.65155851 217.53214039 -83.81640625 218.48828125 C-84.57824219 218.49214844 -85.34007812 218.49601562 -86.125 218.5 C-86.88941406 218.51675781 -87.65382813 218.53351563 -88.44140625 218.55078125 C-91.13992356 218.08860425 -91.86694307 217.30694616 -93.5625 215.1875 C-95.52088422 206.90535535 -91.58238049 199.23597397 -88.375 191.8125 C-87.25984224 189.14382608 -86.16073319 186.46864516 -85.0625 183.79296875 C-84.77578934 183.09790726 -84.48907867 182.40284576 -84.19367981 181.6867218 C-55.98990802 118.82590876 -55.98990802 118.82590876 -54.5625 53.1875 C-57.50734818 46.80699561 -62.30075847 44.67443281 -68.5625 42.1875 C-83.93077832 36.6937549 -100.58044059 36.81382112 -116.6875 36.875 C-117.66371307 36.87649048 -118.63992615 36.87798096 -119.64572144 36.8795166 C-147.60742843 36.95548641 -175.25231134 39.5997959 -202.99438477 42.91699219 C-204.07190254 43.04383141 -204.07190254 43.04383141 -205.17118835 43.17323303 C-207.09878737 43.40102276 -209.0257413 43.63425311 -210.95263672 43.86791992 C-221.06043238 44.76275994 -221.06043238 44.76275994 -225.5 43.0625 C-227.5625 41.1875 -227.5625 41.1875 -228.625 38.5 C-228.53671715 33.82100885 -227.42344706 30.89691421 -224.5625 27.1875 C-221.16308657 24.07752938 -217.45848068 21.63467737 -213.5625 19.1875 C-212.7274292 18.65987061 -212.7274292 18.65987061 -211.87548828 18.12158203 C-186.48871824 2.33025876 -156.96450491 -6.40984277 -127.5625 -10.8125 C-126.06734863 -11.03679688 -126.06734863 -11.03679688 -124.54199219 -11.265625 C-85.10205519 -16.89470244 -36.35044057 -18.4940838 0 0 Z " fill="#FF9900" transform="translate(1452.5625,939.8125)"/>
</svg>
