<svg xmlns="http://www.w3.org/2000/svg" width="800" height="600" fill="#fff">
    <path d="M225.882 89.154c2.744 1.096 4.24 2.602 6.324 4.698l2.519 2.51 2.738 2.776c.967.97 1.935 1.939 2.903 2.907 2.084 2.087 4.163 4.178 6.238 6.273 3.284 3.314 6.578 6.618 9.873 9.921 5.213 5.228 10.418 10.462 15.621 15.7 9.311 9.372 18.634 18.733 27.96 28.091 3.272 3.283 6.54 6.57 9.805 9.86l6.11 6.142a3091.84 3091.84 0 0 1 4.167 4.199l2.527 2.536 2.183 2.197c2.183 2.136 2.183 2.136 4.92 4.176L332 193v2l1.599.613c3.47 2.005 6.016 4.741 8.822 7.58l1.923 1.923c2.093 2.095 4.18 4.196 6.265 6.298 1.452 1.455 2.903 2.91 4.355 4.363 3.819 3.827 7.631 7.659 11.442 11.492 3.891 3.911 7.788 7.817 11.684 11.723 7.642 7.664 15.278 15.334 22.91 23.008 3.965-1.598 6.617-4.355 9.56-7.348l1.647-1.652c1.795-1.801 3.583-3.61 5.371-5.418a6483.772 6483.772 0 0 0 13.653-13.734 11795.4 11795.4 0 0 1 15.791-15.887c1.83-1.84 3.657-3.685 5.484-5.529l3.417-3.437 1.509-1.529a152.091 152.091 0 0 1 8.423-7.822c4.378-3.794 8.465-7.837 12.545-11.947l2.418-2.422c1.72-1.723 3.438-3.447 5.155-5.172 2.722-2.736 5.448-5.468 8.174-8.2 5.787-5.798 11.57-11.6 17.353-17.403 6.705-6.728 13.41-13.455 20.121-20.177 2.677-2.683 5.35-5.369 8.023-8.055l4.956-4.965 2.226-2.243c4.56-4.56 9.268-8.876 14.174-13.06l2.625-2.25c5.47-4.03 10.594-5.907 17.375-5.75 10.935 1.748 18.085 10.933 25.5 18.438l2.203 2.216c1.768 1.78 3.534 3.562 5.297 5.346-1.342 2.99-2.818 5.06-5.145 7.356l-1.933 1.923-2.09 2.05-2.16 2.144c-2.282 2.264-4.57 4.52-6.86 6.777-2.27 2.243-4.539 4.487-6.805 6.734-1.408 1.397-2.82 2.79-4.234 4.18l-1.98 1.962-1.712 1.686c-1.743 1.832-3.377 3.7-5.017 5.622-5.329 6.119-11.14 11.774-16.884 17.5a14158.562 14158.562 0 0 1-14.342 14.33c-3.655 3.648-7.307 7.3-10.959 10.95a58235.043 58235.043 0 0 1-20.728 20.707 84907.41 84907.41 0 0 0-23.609 23.587C473.365 267.675 457.184 283.838 441 300c1.587 3.856 4.043 6.287 6.977 9.21l1.55 1.553c1.713 1.715 3.434 3.423 5.155 5.13l3.691 3.687c2.65 2.648 5.304 5.292 7.96 7.933 4.203 4.181 8.4 8.37 12.595 12.56 6.642 6.63 13.29 13.257 19.938 19.88 11.892 11.848 23.778 23.7 35.659 35.559 4.166 4.158 8.336 8.314 12.508 12.467 2.603 2.593 5.205 5.188 7.805 7.783l3.605 3.589c5.575 5.543 11.116 11.071 16.204 17.074 2.002 2.33 4.18 4.46 6.384 6.598l2.707 2.657c1.838 1.793 3.679 3.582 5.524 5.367 15.78 15.53 15.78 15.53 16.05 26.64-.184 10.249-4.568 14.95-11.737 21.87l-1.595 1.529c-3.06 2.945-5.807 6.09-8.48 9.39-1.688 1.715-3.34 2.499-5.5 3.524l-1.586-1.589a117748.67 117748.67 0 0 0-38.288-38.337 51228.48 51228.48 0 0 1-18.516-18.54 31676.13 31676.13 0 0 0-16.147-16.165c-2.849-2.85-5.696-5.7-8.542-8.554-2.683-2.69-5.37-5.378-8.057-8.064-.981-.981-1.961-1.964-2.94-2.947-4.892-4.91-9.83-9.678-15.088-14.194-3.001-2.632-5.807-5.45-8.62-8.28l-1.894-1.894c-2.037-2.038-4.07-4.079-6.103-6.12l-4.27-4.274c-3.725-3.728-7.446-7.46-11.166-11.19-3.806-3.817-7.615-7.63-11.424-11.444A45344.692 45344.692 0 0 1 403 340a190.482 190.482 0 0 0-13.546 12.464l-1.856 1.865c-1.316 1.323-2.63 2.647-3.944 3.973a3967.505 3967.505 0 0 1-6.242 6.277c-5.915 5.94-11.824 11.885-17.73 17.834a7177.683 7177.683 0 0 1-10.877 10.933 2137.987 2137.987 0 0 0-4.14 4.17c-1.918 1.937-3.84 3.867-5.766 5.796l-1.73 1.757C333.228 409 333.228 409 331 409l-.76 1.745c-1.409 2.561-3.02 4.277-5.092 6.337l-2.332 2.326-2.441 2.405-2.371 2.369c-3.41 3.383-6.834 6.68-10.49 9.794-5.46 4.752-10.498 9.929-15.58 15.076a2674.756 2674.756 0 0 1-5.518 5.565 7938.136 7938.136 0 0 0-15.673 15.811c-3.205 3.244-6.419 6.48-9.636 9.711a1093.66 1093.66 0 0 0-3.632 3.673c-20.946 21.278-20.946 21.278-33.288 21.626l-2.332.12c-9.78-1.913-16.279-9.489-22.918-16.37-.97-.99-1.94-1.98-2.912-2.967A1322.537 1322.537 0 0 1 189 479c3.839-4.59 7.814-8.953 12.065-13.163l1.737-1.732c1.232-1.228 2.464-2.455 3.698-3.68 1.952-1.94 3.902-3.882 5.85-5.826 4.13-4.12 8.265-8.234 12.4-12.349 4.808-4.784 9.613-9.57 14.415-14.36 1.92-1.913 3.844-3.824 5.767-5.734l3.52-3.51 1.622-1.606c2.259-2.26 4.146-4.37 5.926-7.04h2l.738-1.723c1.497-2.7 3.264-4.525 5.45-6.706.879-.88 1.756-1.761 2.66-2.669l2.926-2.903 3.075-3.076c2.78-2.78 5.567-5.555 8.354-8.33 2.913-2.9 5.82-5.806 8.729-8.712 5.507-5.5 11.018-10.995 16.532-16.489 6.277-6.255 12.548-12.515 18.82-18.776C338.182 327.738 351.088 314.866 364 302c-5.659-6.912-11.997-13.124-18.32-19.418l-3.752-3.747c-2.683-2.68-5.368-5.358-8.054-8.036-4.251-4.238-8.5-8.48-12.747-12.723-9.785-9.773-19.574-19.54-29.363-29.307a66401.688 66401.688 0 0 1-26.913-26.865c-4.218-4.212-8.437-8.422-12.66-12.63-2.63-2.625-5.26-5.25-7.89-7.878a3441.36 3441.36 0 0 0-3.643-3.633c-5.62-5.595-11.209-11.176-16.344-17.229-1.725-2.014-3.585-3.855-5.505-5.682l-2.174-2.11a741.744 741.744 0 0 0-4.406-4.21c-7.018-6.848-13.27-14.573-13.542-24.72l-.113-2.73c1.243-8.993 7.271-14.587 13.48-20.713a344.536 344.536 0 0 0 4.325-4.383l2.777-2.771 2.526-2.528C224 89 224 89 225.882 89.154Z"/>
</svg>
