<svg xmlns="http://www.w3.org/2000/svg" viewBox="0 0 42.4938 42.65" fill="none">
<path id="Vector" d="M21.046 28.7071C21.4365 29.0976 22.0697 29.0976 22.4602 28.7071L28.8242 22.3431C29.2147 21.9526 29.2147 21.3195 28.8242 20.9289C28.4336 20.5384 27.8005 20.5384 27.4099 20.9289L21.7531 26.5858L16.0962 20.9289C15.7057 20.5384 15.0725 20.5384 14.682 20.9289C14.2915 21.3195 14.2915 21.9526 14.682 22.3431L21.046 28.7071ZM21.7531 0H20.7531V28H21.7531H22.7531V0H21.7531ZM1.50617 41.65V42.65H42V41.65V40.65H1.50617V41.65ZM41.4938 42H42.4938V28H41.4938H40.4938V42H41.4938ZM1 42H2V28H1H0V42H1Z" fill="#DE4747"/>
</svg>