<?xml version="1.0" standalone="no"?> <!DOCTYPE svg PUBLIC "-//W3C//DTD SVG 20010904//EN" "http://www.w3.org/TR/2001/REC-SVG-20010904/DTD/svg10.dtd"> <svg version="1.0" xmlns="http://www.w3.org/2000/svg" width="400.000000pt" height="400.000000pt" viewBox="0 0 400.000000 400.000000" preserveAspectRatio="xMidYMid meet"> <g transform="translate(0.000000,400.000000) scale(0.050000,-0.050000)" fill="#de4c35" stroke="none"> <path d="M3894 7979 c-149 -37 -139 -28 -601 -482 l-381 -374 451 -454 451 -454 88 18 c217 45 613 -123 656 -278 2 -8 19 -48 38 -90 25 -54 34 -129 34 -271 l0 -195 423 -421 423 -422 131 14 c586 63 923 -604 527 -1043 -406 -450 -1183 -42 -1056 554 l23 105 -386 387 c-212 213 -392 387 -400 387 -8 0 -15 -477 -15 -1059 l0 -1060 55 -28 c581 -302 196 -1272 -449 -1131 -64 14 -120 26 -126 27 -185 28 -416 418 -379 641 33 202 160 430 240 430 12 0 15 10 7 23 -8 13 -5 18 7 10 11 -7 44 6 73 29 l53 41 -1 1089 c-1 1016 -4 1088 -36 1088 -19 0 -90 58 -158 129 -182 189 -241 423 -157 632 11 28 -828 895 -883 914 -9 3 -563 -542 -1230 -1210 -1314 -1314 -1300 -1298 -1303 -1515 -3 -216 -52 -162 1922 -2132 2003 -1999 1860 -1873 2105 -1863 186 7 157 -20 2061 1885 1915 1915 1881 1877 1885 2070 5 240 126 104 -1863 2095 -2040 2043 -1965 1978 -2229 1914z"/> </g> </svg>