<?xml version="1.0" encoding="UTF-8"?>
<svg version="1.1" xmlns="http://www.w3.org/2000/svg" width="480" height="480">
<path d="M0 0 C112.2 0 224.4 0 340 0 C340 13.5 340 13.5 339.54709625 18.5990715 C339.44607778 19.76551783 339.34505931 20.93196416 339.24097967 22.13375735 C339.12814217 23.3750343 339.01530467 24.61631124 338.89904785 25.89520264 C338.77898018 27.2584544 338.65937607 28.62174705 338.54019022 29.98507619 C338.21425716 33.6981091 337.88182573 37.41053477 337.5482533 41.12288809 C337.18858564 45.1387354 336.83505666 49.1551238 336.48075867 53.17144775 C335.86705263 60.11894824 335.2495113 67.06609909 334.62931824 74.01302338 C333.73264337 84.05694699 332.84182513 94.10138335 331.95240742 104.1459519 C330.50901454 120.44499931 329.06092624 136.74362597 327.60986328 153.04199219 C326.20081208 168.86859593 324.79398585 184.69539487 323.39013672 200.52246094 C323.26020241 201.98733374 323.26020241 201.98733374 323.12764317 203.48179993 C322.69306882 208.38132447 322.25853806 213.28085288 321.82402897 218.18038321 C318.22277565 258.7875234 314.61389284 299.39398286 311 340 C306.42868957 341.74657761 301.89782572 343.40465959 297.19445801 344.76542664 C296.1095961 345.08087433 295.02473419 345.39632202 293.90699768 345.72132874 C292.74208298 346.05652023 291.57716827 346.39171173 290.37695312 346.73706055 C289.13042465 347.09838074 287.88389618 347.45970093 286.59959412 347.83197021 C283.20182745 348.8164707 279.80284644 349.79670821 276.4034481 350.77555823 C274.27581232 351.38828472 272.14838365 352.00172535 270.02101135 352.61536598 C263.35304435 354.53846445 256.6843043 356.45884871 250.01446295 358.37543648 C242.33562569 360.58200316 234.65948841 362.79765829 226.98553705 365.02115601 C221.03670635 366.74420091 215.08555414 368.45906003 209.13259649 370.16779166 C205.58408653 371.18655048 202.03664191 372.20870432 198.49159241 373.23944664 C194.53873857 374.38847771 190.58120505 375.52049938 186.62304688 376.65112305 C185.45813217 376.99238724 184.29321747 377.33365143 183.09300232 377.68525696 C171.50002878 380.96577247 164.06011099 379.78113323 152.62329102 376.43579102 C151.28410665 376.05228141 149.94465697 375.66969723 148.60496521 375.28796387 C144.98697178 374.25413963 141.372883 373.20724198 137.75942349 372.15769696 C133.97433829 371.06054128 130.18593943 369.97494522 126.39793396 368.88792419 C120.04521589 367.06313582 113.69482233 365.23044613 107.34594727 363.39233398 C99.18823421 361.03057286 91.02685265 358.6817597 82.86422825 356.33703709 C75.84827097 354.32160796 68.83395068 352.30050417 61.81992602 350.27836108 C59.56271821 349.62784337 57.30529778 348.9780675 55.04785347 348.32837105 C51.51006847 347.3097788 47.97331862 346.28766721 44.43735695 345.26276398 C42.51429293 344.70614955 40.59030134 344.15274301 38.66629028 343.59941101 C37.53215195 343.26988434 36.39801361 342.94035767 35.22950745 342.60084534 C34.23790902 342.31416772 33.2463106 342.0274901 32.22466373 341.73212528 C30 341 30 341 29 340 C28.75746154 338.26899171 28.57838914 336.52906412 28.42404842 334.78797436 C28.3210389 333.65082995 28.21802938 332.51368554 28.11189836 331.3420822 C28.0019737 330.07694944 27.89204904 328.81181668 27.77879333 327.50834656 C27.6586949 326.16306697 27.53820217 324.81782254 27.41734654 323.47261077 C27.08486237 319.75867694 26.75807711 316.04425984 26.43218768 312.32974231 C26.08028898 308.32988705 25.72321056 304.33049388 25.36679077 300.33103943 C24.66854405 292.48614248 23.97524143 284.640816 23.28370672 276.79532482 C22.72129715 270.41564155 22.15718398 264.03611108 21.59184456 257.65668678 C21.51149457 256.74996846 21.43114459 255.84325014 21.34835975 254.9090555 C21.18513136 253.06714954 21.02189989 251.22524385 20.85866535 249.38333843 C19.32582126 232.08454083 17.79865236 214.78524571 16.27332587 197.48578385 C14.96529916 182.65245942 13.65211467 167.81959889 12.33520508 152.98706055 C10.8064795 135.76880065 9.28122631 118.55023864 7.76128536 101.3312009 C7.5989756 99.49256233 7.43666039 97.65392424 7.27433968 95.81528664 C7.19447547 94.910642 7.11461126 94.00599737 7.03232692 93.07393926 C6.47024939 86.70993459 5.9056794 80.34615389 5.3401165 73.98245811 C4.64984773 66.21493324 3.96333157 58.44708754 3.28156286 50.67881181 C2.93382417 46.71768218 2.58443289 42.75671761 2.2304287 38.79614258 C1.90578913 35.16356446 1.5860934 31.53058487 1.27017892 27.89723787 C1.10173341 25.97421435 0.92816512 24.05164162 0.75435823 22.12909526 C0.65395646 20.96326562 0.55355469 19.79743599 0.45011044 18.59627819 C0.36255739 17.60499076 0.27500435 16.61370333 0.18479818 15.59237689 C-0.08223394 10.40141667 0 5.19782398 0 0 Z " fill="#E65100" transform="translate(70,50)"/>
<path d="M0 0 C45.21 0 90.42 0 137 0 C136.13462353 12.11527054 135.24560878 24.22797104 134.32543945 36.33911133 C134.15056094 38.64922894 133.97705173 40.95945062 133.80493164 43.26977539 C132.96190845 54.57785863 132.11486978 65.86660704 130.71278381 77.12089539 C129.78122813 84.60595713 129.14037238 92.11067247 128.5 99.625 C128.3707454 101.12054323 128.24126602 102.61606705 128.11157227 104.11157227 C127.85589387 107.06304892 127.60152915 110.01463419 127.34814453 112.96630859 C127.0499549 116.43257233 126.74380195 119.89806984 126.43359375 123.36328125 C125.42753822 134.64077682 124.5601015 145.92291224 123.75195312 157.21630859 C123.21044045 164.61520515 122.51034733 171.97902238 121.6796875 179.3503418 C121.19828322 183.73885761 120.84108172 188.1116901 120.62524414 192.52148438 C120.58391357 193.36001953 120.54258301 194.19855469 120.5 195.0625 C120.46961639 195.7149469 120.43923279 196.3673938 120.40792847 197.03961182 C120.14812143 202.1978071 119.67598837 207.29491161 119.0625 212.421875 C118.08719977 220.8896309 117.3418074 229.36339124 116.68109131 237.86083984 C116.43170549 241.06494746 116.17532869 244.26848562 115.91940308 247.47207642 C115.79177393 249.07017751 115.66442999 250.66830141 115.53738403 252.26644897 C115.00102004 259.01248581 114.44976317 265.75711458 113.875 272.5 C113.76188477 273.86741333 113.76188477 273.86741333 113.64648438 275.26245117 C113.57494141 276.09365479 113.50339844 276.9248584 113.4296875 277.78125 C113.37022949 278.48314453 113.31077148 279.18503906 113.24951172 279.90820312 C112.96362717 282.30493383 112.49943946 284.63938831 112 287 C90.35284806 293.78146177 68.50875045 299.88575931 46.68554688 306.06970215 C42.56045718 307.23934409 38.43611676 308.41161602 34.31177711 309.5838995 C30.33857888 310.71296763 26.36500693 311.84071551 22.39130783 312.96801949 C20.49409697 313.50635283 18.59698394 314.04503104 16.69997025 314.58405876 C14.07590166 315.3293992 11.45135585 316.07303352 8.82666016 316.81616211 C8.04352448 317.03893326 7.26038879 317.26170441 6.45352173 317.4912262 C1.11442175 319 1.11442175 319 0 319 C0 303.16 0 287.32 0 271 C-3.63 270.01 -7.26 269.02 -11 268 C-13.72670304 267.1135436 -16.43083434 266.21133219 -19.1328125 265.2578125 C-20.21428055 264.88243851 -20.21428055 264.88243851 -21.31759644 264.4994812 C-24.33639595 263.45164523 -27.35230767 262.39562733 -30.36816406 261.33935547 C-40.50916492 257.79421765 -50.68431853 254.53372191 -61.0124054 251.57710266 C-64.49787256 250.56508926 -67.96747965 249.50106082 -71.4375 248.4375 C-72.65308594 248.06496094 -73.86867187 247.69242188 -75.12109375 247.30859375 C-78.4255732 245.80655764 -78.75677113 245.27781809 -80 242 C-80.35440063 239.54486084 -80.35440063 239.54486084 -80.50244141 236.77246094 C-80.5623526 235.73168396 -80.62226379 234.69090698 -80.68399048 233.61859131 C-80.73928925 232.50179993 -80.79458801 231.38500854 -80.8515625 230.234375 C-80.91532074 229.08584045 -80.97907898 227.93730591 -81.04476929 226.75396729 C-81.24645984 223.08637316 -81.43587477 219.41826146 -81.625 215.75 C-81.75960858 213.26297696 -81.89501551 210.775997 -82.03125 208.2890625 C-82.36493556 202.19319711 -82.68201742 196.09678593 -83 190 C-69.8 190 -56.6 190 -43 190 C-42.01 198.25 -41.02 206.5 -40 215 C-34.75922512 216.90992577 -29.51718502 218.80423206 -24.2590332 220.6640625 C-22.47449058 221.30000272 -20.69283194 221.94410011 -18.91430664 222.59667969 C-16.34728547 223.53693835 -13.77109245 224.44672163 -11.19140625 225.3515625 C-10.40665421 225.6462442 -9.62190216 225.9409259 -8.81336975 226.24453735 C-2.92992995 228.26026238 1.12809405 227.89630394 7 226 C7.6590181 225.7966806 8.31803619 225.59336121 8.99702454 225.38388062 C10.94796435 224.75660061 12.8779103 224.08538271 14.80859375 223.3984375 C15.50138931 223.1571109 16.19418488 222.9157843 16.90797424 222.66714478 C19.08618114 221.90785007 21.26199564 221.14200009 23.4375 220.375 C25.6382343 219.60158054 27.83945732 218.82966569 30.04200745 218.06143188 C31.40423835 217.58608323 32.76540045 217.10765796 34.12535095 216.62582397 C38.77576511 215 38.77576511 215 41 215 C41.03758423 213.98184204 41.03758423 213.98184204 41.07592773 212.94311523 C42.37565036 178.12174818 42.37565036 178.12174818 44 170 C1.76 170 -40.48 170 -84 170 C-84.64632179 166.12206929 -85.15249034 162.6827236 -85.34130859 158.81640625 C-85.39171799 157.82252899 -85.44212738 156.82865173 -85.49406433 155.80465698 C-85.57047905 154.19978928 -85.57047905 154.19978928 -85.6484375 152.5625 C-85.766496 150.22021362 -85.88457976 147.87792852 -86.00268555 145.53564453 C-86.06338226 144.30606018 -86.12407898 143.07647583 -86.18661499 141.80963135 C-87.28145446 119.66915008 -88.53706253 97.54707769 -90.08544922 75.43359375 C-90.17780098 74.0868306 -90.17780098 74.0868306 -90.27201843 72.71286011 C-90.38441658 71.07633616 -90.49979136 69.44001173 -90.61921692 67.8039856 C-91.02805471 61.82615493 -91 56.036017 -91 50 C-60.97 50 -30.94 50 0 50 C0 33.5 0 17 0 0 Z " fill="#FE6D00" transform="translate(240,80)"/>
<path d="M0 0 C60.39 0 120.78 0 183 0 C181 32 181 32 180 40 C134.46 40 88.92 40 42 40 C42.33 40.99 42.66 41.98 43 43 C43.21849271 45.11472939 43.3900637 47.2344389 43.53515625 49.35546875 C43.66567383 51.24942383 43.66567383 51.24942383 43.79882812 53.18164062 C43.84209229 53.84010986 43.88535645 54.4985791 43.92993164 55.17700195 C44.06090168 57.1632603 44.1993503 59.14902094 44.33789062 61.13476562 C44.76528613 67.46214722 45 73.64432295 45 80 C88.56 80 132.12 80 177 80 C172.55453082 168.90938369 172.55453082 168.90938369 170 195 C124.41378121 210.68131549 124.41378121 210.68131549 106.63818359 216.13769531 C104.73684184 216.75915923 102.85572537 217.44374759 100.99072266 218.16699219 C99.96897949 218.55274414 98.94723633 218.93849609 97.89453125 219.3359375 C96.9816333 219.69993652 96.06873535 220.06393555 95.12817383 220.43896484 C88.1237334 221.69520492 80.96244784 218.45248431 74.40625 216.13671875 C73.61585327 215.86285843 72.82545654 215.58899811 72.0111084 215.30683899 C69.50574188 214.43842395 67.0026625 213.56367438 64.5 212.6875 C53.06015505 208.6873886 41.61670381 204.89320431 29.96141052 201.56803894 C26.48410137 200.56098459 23.02363054 199.49858989 19.5625 198.4375 C18.34691406 198.06496094 17.13132813 197.69242188 15.87890625 197.30859375 C12.5744268 195.80655764 12.24322887 195.27781809 11 192 C10.64559937 189.54486084 10.64559937 189.54486084 10.49755859 186.77246094 C10.4376474 185.73168396 10.37773621 184.69090698 10.31600952 183.61859131 C10.26071075 182.50179993 10.20541199 181.38500854 10.1484375 180.234375 C10.08467926 179.08584045 10.02092102 177.93730591 9.95523071 176.75396729 C9.75354016 173.08637316 9.56412523 169.41826146 9.375 165.75 C9.24039142 163.26297696 9.10498449 160.775997 8.96875 158.2890625 C8.63506444 152.19319711 8.31798258 146.09678593 8 140 C21.2 140 34.4 140 48 140 C48.99 148.25 49.98 156.5 51 165 C56.24077488 166.90992577 61.48281498 168.80423206 66.7409668 170.6640625 C68.52550942 171.30000272 70.30716806 171.94410011 72.08569336 172.59667969 C74.65271453 173.53693835 77.22890755 174.44672163 79.80859375 175.3515625 C80.59334579 175.6462442 81.37809784 175.9409259 82.18663025 176.24453735 C88.07007005 178.26026238 92.12809405 177.89630394 98 176 C98.6590181 175.7966806 99.31803619 175.59336121 99.99702454 175.38388062 C101.94796435 174.75660061 103.8779103 174.08538271 105.80859375 173.3984375 C106.50138931 173.1571109 107.19418488 172.9157843 107.90797424 172.66714478 C110.08618114 171.90785007 112.26199564 171.14200009 114.4375 170.375 C116.6382343 169.60158054 118.83945732 168.82966569 121.04200745 168.06143188 C122.40423835 167.58608323 123.76540045 167.10765796 125.12535095 166.62582397 C129.77576511 165 129.77576511 165 132 165 C132.03758423 163.98184204 132.03758423 163.98184204 132.07592773 162.94311523 C133.37565036 128.12174818 133.37565036 128.12174818 135 120 C92.76 120 50.52 120 7 120 C6.35367821 116.12206929 5.84750966 112.6827236 5.65869141 108.81640625 C5.60828201 107.82252899 5.55787262 106.82865173 5.50593567 105.80465698 C5.42952095 104.19978928 5.42952095 104.19978928 5.3515625 102.5625 C5.233504 100.22021362 5.11542024 97.87792852 4.99731445 95.53564453 C4.93661774 94.30606018 4.87592102 93.07647583 4.81338501 91.80963135 C3.71854554 69.66915008 2.46293747 47.54707769 0.91455078 25.43359375 C0.85298294 24.53575165 0.7914151 23.63790955 0.72798157 22.71286011 C0.61558342 21.07633616 0.50020864 19.44001173 0.38078308 17.8039856 C-0.02805471 11.82615493 0 6.036017 0 0 Z " fill="#FFFEFD" transform="translate(149,130)"/>
<path d="M0 0 C60.39 0 120.78 0 183 0 C181 32 181 32 180 40 C134.46 40 88.92 40 42 40 C42.33 40.99 42.66 41.98 43 43 C43.21849271 45.11472939 43.3900637 47.2344389 43.53515625 49.35546875 C43.66567383 51.24942383 43.66567383 51.24942383 43.79882812 53.18164062 C43.84209229 53.84010986 43.88535645 54.4985791 43.92993164 55.17700195 C44.06090168 57.1632603 44.1993503 59.14902094 44.33789062 61.13476562 C44.76528613 67.46214722 45 73.64432295 45 80 C60.18 80 75.36 80 91 80 C91 93.2 91 106.4 91 120 C63.28 120 35.56 120 7 120 C6.35367821 116.12206929 5.84750966 112.6827236 5.65869141 108.81640625 C5.60828201 107.82252899 5.55787262 106.82865173 5.50593567 105.80465698 C5.42952095 104.19978928 5.42952095 104.19978928 5.3515625 102.5625 C5.233504 100.22021362 5.11542024 97.87792852 4.99731445 95.53564453 C4.93661774 94.30606018 4.87592102 93.07647583 4.81338501 91.80963135 C3.71854554 69.66915008 2.46293747 47.54707769 0.91455078 25.43359375 C0.85298294 24.53575165 0.7914151 23.63790955 0.72798157 22.71286011 C0.61558342 21.07633616 0.50020864 19.44001173 0.38078308 17.8039856 C-0.02805471 11.82615493 0 6.036017 0 0 Z " fill="#EDEDED" transform="translate(149,130)"/>
<path d="M0 0 C13.2 0 26.4 0 40 0 C40.99 8.25 41.98 16.5 43 25 C45.71992188 25.92683594 48.43984375 26.85367187 51.2421875 27.80859375 C53.87007061 28.70514511 56.49778734 29.60218248 59.12548828 30.49926758 C60.95474168 31.12347472 62.78416819 31.74717478 64.61376953 32.37036133 C67.24036376 33.26511172 69.86633431 34.16167131 72.4921875 35.05859375 C73.31306854 35.3377916 74.13394958 35.61698944 74.97970581 35.90464783 C80.77225659 37.88612829 80.77225659 37.88612829 83 39 C83 52.86 83 66.72 83 81 C76.49901544 79.22700421 70.18971868 77.4890141 63.8671875 75.2578125 C63.1462088 75.00756317 62.4252301 74.75731384 61.68240356 74.4994812 C58.66360405 73.45164523 55.64769233 72.39562733 52.63183594 71.33935547 C42.49083508 67.79421765 32.31568147 64.53372191 21.9875946 61.57710266 C18.50212744 60.56508926 15.03252035 59.50106082 11.5625 58.4375 C10.34691406 58.06496094 9.13132813 57.69242187 7.87890625 57.30859375 C4.5744268 55.80655764 4.24322887 55.27781809 3 52 C2.64559937 49.54486084 2.64559937 49.54486084 2.49755859 46.77246094 C2.4376474 45.73168396 2.37773621 44.69090698 2.31600952 43.61859131 C2.26071075 42.50179993 2.20541199 41.38500854 2.1484375 40.234375 C2.08467926 39.08584045 2.02092102 37.93730591 1.95523071 36.75396729 C1.75354016 33.08637316 1.56412523 29.41826146 1.375 25.75 C1.24039142 23.26297696 1.10498449 20.775997 0.96875 18.2890625 C0.63506444 12.19319711 0.31798258 6.09678593 0 0 Z " fill="#EDECEC" transform="translate(157,270)"/>
<path d="M0 0 C30.36 0 60.72 0 92 0 C90 32 90 32 89 40 C59.63 40 30.26 40 0 40 C0 26.8 0 13.6 0 0 Z " fill="#FFFEFE" transform="translate(240,130)"/>
<path d="M0 0 C14.52 0 29.04 0 44 0 C43.690625 5.56875 43.38125 11.1375 43.0625 16.875 C42.96718994 18.61120605 42.87187988 20.34741211 42.77368164 22.13623047 C42.34665884 29.78033257 41.85337192 37.38884507 41 45 C36.32511317 46.67926503 31.64773646 48.3513379 26.96801758 50.01708984 C25.37976601 50.58352809 23.79218504 51.15185064 22.20532227 51.72216797 C19.91080058 52.54643465 17.61387024 53.36366312 15.31640625 54.1796875 C14.61914932 54.43185028 13.9218924 54.68401306 13.20350647 54.94381714 C8.20730479 56.7078353 3.19206236 57.95206948 -2 59 C-1.01 58.505 -1.01 58.505 0 58 C0 38.86 0 19.72 0 0 Z " fill="#FE6D00" transform="translate(240,250)"/>
<path d="M0 0 C16.17 0 32.34 0 49 0 C49 13.2 49 26.4 49 40 C33.82 40 18.64 40 3 40 C2.690625 36.37 2.38125 32.74 2.0625 29 C1.96718994 27.89269531 1.87187988 26.78539062 1.77368164 25.64453125 C1.0538166 17.09751546 0.53546915 8.56750645 0 0 Z " fill="#E65100" transform="translate(191,170)"/>
</svg>
