<svg xmlns="http://www.w3.org/2000/svg" xml:space="preserve" width="800px" height="800px" viewBox="0 0 512 512"><path fill="#de4747" d="M256 0a256 256 0 1 0 0 512 256 256 0 0 0 0-512M98 98q35-36 83-53-23 28-38 69H83zm-32 40h70q-14 49-16 106H32q4-59 34-106m0 236q-30-47-34-106h88q2 58 16 106zm32 40-15-16h60a286 286 0 0 0 38 69q-48-17-83-53m146 66-11-1q-9-4-18-11-27-23-46-70h75zm0-106h-83q-15-47-17-106h100zm0-130H144q2-59 17-106h83zm0-130h-75l10-22q17-31 36-48 9-7 18-11l11-1zm202 24q30 47 34 106h-88q-2-57-16-106zm-32-40 15 16h-60a286 286 0 0 0-38-69q48 17 83 53M268 32l11 1q9 4 18 11 27 23 46 70h-75zm0 106h83q15 47 17 106H268zm0 130h100q-2 59-17 106h-83zm29 200q-9 7-18 11l-11 1v-82h75l-10 22q-16 32-36 48m117-54q-35 36-83 53 23-28 38-69h60zm32-40h-70q14-49 16-106h88q-4 59-34 106"/></svg>