<?xml version="1.0" encoding="UTF-8"?>
<svg version="1.1" xmlns="http://www.w3.org/2000/svg" width="480" height="480">
<path d="M0 0 C112.2 0 224.4 0 340 0 C340 13.5 340 13.5 339.54709625 18.5990715 C339.44607778 19.76551783 339.34505931 20.93196416 339.24097967 22.13375735 C339.12814217 23.3750343 339.01530467 24.61631124 338.89904785 25.89520264 C338.77898018 27.2584544 338.65937607 28.62174705 338.54019022 29.98507619 C338.21425716 33.6981091 337.88182573 37.41053477 337.5482533 41.12288809 C337.18858564 45.1387354 336.83505666 49.1551238 336.48075867 53.17144775 C335.86705263 60.11894824 335.2495113 67.06609909 334.62931824 74.01302338 C333.73264337 84.05694699 332.84182513 94.10138335 331.95240742 104.1459519 C330.50901454 120.44499931 329.06092624 136.74362597 327.60986328 153.04199219 C326.20081208 168.86859593 324.79398585 184.69539487 323.39013672 200.52246094 C323.26020241 201.98733374 323.26020241 201.98733374 323.12764317 203.48179993 C322.69306882 208.38132447 322.25853806 213.28085288 321.82402897 218.18038321 C318.22277565 258.7875234 314.61389284 299.39398286 311 340 C306.42868957 341.74657761 301.89782572 343.40465959 297.19445801 344.76542664 C296.1095961 345.08087433 295.02473419 345.39632202 293.90699768 345.72132874 C292.74208298 346.05652023 291.57716827 346.39171173 290.37695312 346.73706055 C289.13042465 347.09838074 287.88389618 347.45970093 286.59959412 347.83197021 C283.20182745 348.8164707 279.80284644 349.79670821 276.4034481 350.77555823 C274.27581232 351.38828472 272.14838365 352.00172535 270.02101135 352.61536598 C263.35304435 354.53846445 256.6843043 356.45884871 250.01446295 358.37543648 C242.33562569 360.58200316 234.65948841 362.79765829 226.98553705 365.02115601 C221.03670635 366.74420091 215.08555414 368.45906003 209.13259649 370.16779166 C205.58408653 371.18655048 202.03664191 372.20870432 198.49159241 373.23944664 C194.53873857 374.38847771 190.58120505 375.52049938 186.62304688 376.65112305 C185.45813217 376.99238724 184.29321747 377.33365143 183.09300232 377.68525696 C171.50002878 380.96577247 164.06011099 379.78113323 152.62329102 376.43579102 C151.28410665 376.05228141 149.94465697 375.66969723 148.60496521 375.28796387 C144.98697178 374.25413963 141.372883 373.20724198 137.75942349 372.15769696 C133.97433829 371.06054128 130.18593943 369.97494522 126.39793396 368.88792419 C120.04521589 367.06313582 113.69482233 365.23044613 107.34594727 363.39233398 C99.18823421 361.03057286 91.02685265 358.6817597 82.86422825 356.33703709 C75.84827097 354.32160796 68.83395068 352.30050417 61.81992602 350.27836108 C59.56271821 349.62784337 57.30529778 348.9780675 55.04785347 348.32837105 C51.51006847 347.3097788 47.97331862 346.28766721 44.43735695 345.26276398 C42.51429293 344.70614955 40.59030134 344.15274301 38.66629028 343.59941101 C37.53215195 343.26988434 36.39801361 342.94035767 35.22950745 342.60084534 C34.23790902 342.31416772 33.2463106 342.0274901 32.22466373 341.73212528 C30 341 30 341 29 340 C28.75746154 338.26899171 28.57838914 336.52906412 28.42404842 334.78797436 C28.3210389 333.65082995 28.21802938 332.51368554 28.11189836 331.3420822 C28.0019737 330.07694944 27.89204904 328.81181668 27.77879333 327.50834656 C27.6586949 326.16306697 27.53820217 324.81782254 27.41734654 323.47261077 C27.08486237 319.75867694 26.75807711 316.04425984 26.43218768 312.32974231 C26.08028898 308.32988705 25.72321056 304.33049388 25.36679077 300.33103943 C24.66854405 292.48614248 23.97524143 284.640816 23.28370672 276.79532482 C22.72129715 270.41564155 22.15718398 264.03611108 21.59184456 257.65668678 C21.51149457 256.74996846 21.43114459 255.84325014 21.34835975 254.9090555 C21.18513136 253.06714954 21.02189989 251.22524385 20.85866535 249.38333843 C19.32582126 232.08454083 17.79865236 214.78524571 16.27332587 197.48578385 C14.96529916 182.65245942 13.65211467 167.81959889 12.33520508 152.98706055 C10.8064795 135.76880065 9.28122631 118.55023864 7.76128536 101.3312009 C7.5989756 99.49256233 7.43666039 97.65392424 7.27433968 95.81528664 C7.19447547 94.910642 7.11461126 94.00599737 7.03232692 93.07393926 C6.47024939 86.70993459 5.9056794 80.34615389 5.3401165 73.98245811 C4.64984773 66.21493324 3.96333157 58.44708754 3.28156286 50.67881181 C2.93382417 46.71768218 2.58443289 42.75671761 2.2304287 38.79614258 C1.90578913 35.16356446 1.5860934 31.53058487 1.27017892 27.89723787 C1.10173341 25.97421435 0.92816512 24.05164162 0.75435823 22.12909526 C0.65395646 20.96326562 0.55355469 19.79743599 0.45011044 18.59627819 C0.36255739 17.60499076 0.27500435 16.61370333 0.18479818 15.59237689 C-0.08223394 10.40141667 0 5.19782398 0 0 Z " fill="#0277BD" transform="translate(70,50)"/>
<path d="M0 0 C60.39 0 120.78 0 183 0 C183 6.4873572 182.97781645 12.72878593 182.57275391 19.1640625 C182.52719864 19.90258453 182.48164337 20.64110657 182.43470764 21.40200806 C182.28531559 23.80989319 182.1310447 26.21743652 181.9765625 28.625 C181.86899642 30.33820009 181.76169195 32.05141661 181.65463257 33.76464844 C181.42974554 37.35202507 181.20259247 40.93924822 180.97363281 44.52636719 C180.68568241 49.0384947 180.40197034 53.55087508 180.11979294 58.06336689 C179.13352755 73.82295256 178.13685507 89.57973539 176.9296875 105.32421875 C175.80792246 119.9777712 175.063386 134.64798977 174.32275391 149.32495117 C173.54742879 164.59035919 172.51748947 179.78947896 171 195 C125.41378121 210.68131549 125.41378121 210.68131549 107.63818359 216.13769531 C105.73684184 216.75915923 103.85572537 217.44374759 101.99072266 218.16699219 C100.96897949 218.55274414 99.94723633 218.93849609 98.89453125 219.3359375 C97.9816333 219.69993652 97.06873535 220.06393555 96.12817383 220.43896484 C89.1237334 221.69520492 81.96244784 218.45248431 75.40625 216.13671875 C74.61585327 215.86285843 73.82545654 215.58899811 73.0111084 215.30683899 C70.50574188 214.43842395 68.0026625 213.56367438 65.5 212.6875 C54.61170338 208.88024565 43.72586264 205.23917014 32.63867188 202.05200195 C28.55759842 200.87209417 24.52809569 199.59853638 20.5 198.25 C19.2728125 197.84265625 18.045625 197.4353125 16.78125 197.015625 C14 196 14 196 13 195 C12.69548128 191.88523034 12.45063563 188.78590276 12.24609375 185.6640625 C12.18092056 184.71493988 12.11574738 183.76581726 12.04859924 182.78793335 C11.91109196 180.76876758 11.77590499 178.74944269 11.64282227 176.72998047 C11.44063398 173.67239351 11.22970551 170.61550531 11.01757812 167.55859375 C10.88488534 165.59378581 10.75270844 163.62894295 10.62109375 161.6640625 C10.55860947 160.7615274 10.49612518 159.85899231 10.43174744 158.92910767 C10.02009267 152.57801895 10 146.39643003 10 140 C23.2 140 36.4 140 50 140 C50.99 152.375 50.99 152.375 52 165 C57.24077488 166.90992577 62.48281498 168.80423206 67.7409668 170.6640625 C69.52550942 171.30000272 71.30716806 171.94410011 73.08569336 172.59667969 C75.65271453 173.53693835 78.22890755 174.44672163 80.80859375 175.3515625 C81.59334579 175.6462442 82.37809784 175.9409259 83.18663025 176.24453735 C89.07007005 178.26026238 93.12809405 177.89630394 99 176 C99.6590181 175.7966806 100.31803619 175.59336121 100.99702454 175.38388062 C102.94796435 174.75660061 104.8779103 174.08538271 106.80859375 173.3984375 C107.50138931 173.1571109 108.19418488 172.9157843 108.90797424 172.66714478 C111.08618114 171.90785007 113.26199564 171.14200009 115.4375 170.375 C117.6382343 169.60158054 119.83945732 168.82966569 122.04200745 168.06143188 C123.40423835 167.58608323 124.76540045 167.10765796 126.12535095 166.62582397 C130.77576511 165 130.77576511 165 133 165 C134.485 142.725 134.485 142.725 136 120 C106.96 120 77.92 120 48 120 C46.52574028 106.73166248 46.43042094 93.34304913 46 80 C76.36 80 106.72 80 138 80 C138.33 72.08 138.66 64.16 139 56 C139.79207921 43.62376238 139.79207921 43.62376238 141 40 C95.46 40 49.92 40 3 40 C1 24 1 24 0 0 Z " fill="#FDFEFE" transform="translate(148,130)"/>
<path d="M0 0 C45.21 0 90.42 0 137 0 C136.34 8.25 135.68 16.5 135 25 C134.48024664 31.53394042 134.48024664 31.53394042 133.96075439 38.06790161 C133.3526311 45.71223851 132.73964522 53.35618501 132.125 61 C132.02652645 62.22510159 132.02652645 62.22510159 131.92606354 63.4749527 C130.32398753 83.38898931 128.68399272 103.29148767 126.63931274 123.16589355 C124.86348802 140.47212954 123.57438728 157.81363571 122.30615234 175.16357422 C122.22603409 176.24635651 122.14591583 177.32913879 122.06336975 178.44473267 C121.91309488 180.48014884 121.76551055 182.5157661 121.62107849 184.55160522 C121.55381058 185.4617337 121.48654266 186.37186218 121.41723633 187.30957031 C121.36046219 188.09857727 121.30368805 188.88758423 121.24519348 189.70050049 C120.98122813 192.17604834 120.50565328 194.56352474 120 197 C119.87483484 198.41423732 119.78047766 199.83157721 119.71875 201.25 C119.68136719 202.0234375 119.64398438 202.796875 119.60546875 203.59375 C119.57066406 204.3878125 119.53585937 205.181875 119.5 206 C119.43059373 207.5834911 119.35776956 209.1668367 119.28125 210.75 C119.25095703 211.44609375 119.22066406 212.1421875 119.18945312 212.859375 C119 215 119 215 118.51622009 217.32157898 C118.01977471 219.89739841 117.74497246 222.38090886 117.55102539 224.99536133 C117.4774733 225.96439896 117.4039212 226.93343658 117.32814026 227.93183899 C117.25208054 228.97140244 117.17602081 230.01096588 117.09765625 231.08203125 C116.92776193 233.31705939 116.75783911 235.55208536 116.58789062 237.78710938 C116.32572659 241.28401175 116.06484073 244.78100549 115.80493164 248.27807617 C114.83789451 261.23305504 113.82074636 274.13298643 112 287 C90.35284806 293.78146177 68.50875045 299.88575931 46.68554688 306.06970215 C42.56045718 307.23934409 38.43611676 308.41161602 34.31177711 309.5838995 C30.33857888 310.71296763 26.36500693 311.84071551 22.39130783 312.96801949 C20.49409697 313.50635283 18.59698394 314.04503104 16.69997025 314.58405876 C14.07590166 315.3293992 11.45135585 316.07303352 8.82666016 316.81616211 C8.04352448 317.03893326 7.26038879 317.26170441 6.45352173 317.4912262 C1.11442175 319 1.11442175 319 0 319 C0 303.16 0 287.32 0 271 C6.26376999 268.494492 12.42118424 266.09400444 18.8125 264 C19.51697266 263.76539063 20.22144531 263.53078125 20.94726562 263.2890625 C25.24951247 261.86645288 29.57013445 260.5187796 33.90625 259.203125 C43.39475033 256.29784678 52.781723 253.0827862 62.18237305 249.90722656 C64.58296096 249.09702519 66.98475021 248.29047237 69.38671875 247.484375 C70.12307053 247.23443787 70.8594223 246.98450073 71.61808777 246.72698975 C76.77339009 245 76.77339009 245 79 245 C78.98404785 244.44159424 78.9680957 243.88318848 78.95166016 243.30786133 C78.81900616 234.35199393 79.51666121 225.47123241 80.16720581 216.5463562 C81.24751987 201.68327198 82.21161384 186.82197369 82.9375 171.9375 C83.74539938 155.54932253 84.81817834 139.18213156 85.9375 122.8125 C86.01708954 121.64830536 86.09667908 120.48411072 86.17868042 119.28463745 C87.76192208 96.18813938 89.38875436 73.09452078 91 50 C60.97 50 30.94 50 0 50 C0 33.5 0 17 0 0 Z " fill="#039BE4" transform="translate(240,80)"/>
<path d="M0 0 C13.2 0 26.4 0 40 0 C40.99 12.375 40.99 12.375 42 25 C44.71992188 25.92683594 47.43984375 26.85367187 50.2421875 27.80859375 C52.87007061 28.70514511 55.49778734 29.60218248 58.12548828 30.49926758 C59.95474168 31.12347472 61.78416819 31.74717478 63.61376953 32.37036133 C66.24036376 33.26511172 68.86633431 34.16167131 71.4921875 35.05859375 C72.31306854 35.3377916 73.13394958 35.61698944 73.97970581 35.90464783 C79.77225659 37.88612829 79.77225659 37.88612829 82 39 C82 52.86 82 66.72 82 81 C75.49901544 79.22700421 69.18971868 77.4890141 62.8671875 75.2578125 C62.1462088 75.00756317 61.4252301 74.75731384 60.68240356 74.4994812 C57.66360405 73.45164523 54.64769233 72.39562733 51.63183594 71.33935547 C42.0518567 67.99034217 32.44782963 64.88223731 22.69580078 62.07177734 C18.59648004 60.88297975 14.54705469 59.60488353 10.5 58.25 C9.2728125 57.84265625 8.045625 57.4353125 6.78125 57.015625 C4 56 4 56 3 55 C2.69548128 51.88523034 2.45063563 48.78590276 2.24609375 45.6640625 C2.18092056 44.71493988 2.11574738 43.76581726 2.04859924 42.78793335 C1.91109196 40.76876758 1.77590499 38.74944269 1.64282227 36.72998047 C1.44063398 33.67239351 1.22970551 30.61550531 1.01757812 27.55859375 C0.88488534 25.59378581 0.75270844 23.62894295 0.62109375 21.6640625 C0.55860947 20.7615274 0.49612518 19.85899231 0.43174744 18.92910767 C0.02009267 12.57801895 0 6.39643003 0 0 Z " fill="#ECEDED" transform="translate(158,270)"/>
<path d="M0 0 C30.36 0 60.72 0 92 0 C92 13.2 92 26.4 92 40 C62.63 40 33.26 40 3 40 C1 24 1 24 0 0 Z " fill="#EDEDED" transform="translate(148,130)"/>
<path d="M0 0 C14.52 0 29.04 0 44 0 C44 12.39646202 44 12.39646202 43.59765625 18.49609375 C43.51193359 19.79611328 43.42621094 21.09613281 43.33789062 22.43554688 C43.29253174 23.09288818 43.24717285 23.75022949 43.20043945 24.42749023 C43.06105928 26.45849373 42.92962233 28.48991174 42.79882812 30.52148438 C42.71181641 31.81248047 42.62480469 33.10347656 42.53515625 34.43359375 C42.456604 35.59947021 42.37805176 36.76534668 42.29711914 37.96655273 C42.19906982 38.96759033 42.10102051 39.96862793 42 41 C41.97284912 41.73468506 41.94569824 42.46937012 41.91772461 43.22631836 C40.30894432 46.33559977 36.92504721 46.90271396 33.78125 47.9453125 C33.04934448 48.2012619 32.31743896 48.4572113 31.56335449 48.72091675 C30.00904397 49.26114349 28.45200844 49.79358275 26.89257812 50.31884766 C24.53181444 51.11428048 22.17966582 51.93165806 19.828125 52.75390625 C18.31295651 53.27736492 16.79734377 53.79953978 15.28125 54.3203125 C14.58713013 54.55992706 13.89301025 54.79954163 13.17785645 55.04641724 C8.18410165 56.72271797 3.15917208 57.94427114 -2 59 C-1.01 58.505 -1.01 58.505 0 58 C0 38.86 0 19.72 0 0 Z " fill="#049BE5" transform="translate(240,250)"/>
<path d="M0 0 C16.17 0 32.34 0 49 0 C48.690625 5.115 48.38125 10.23 48.0625 15.5 C47.96718994 17.09779297 47.87187988 18.69558594 47.77368164 20.34179688 C47.65561157 22.26088867 47.65561157 22.26088867 47.53515625 24.21875 C47.456604 25.51748047 47.37805176 26.81621094 47.29711914 28.15429688 C46.99114103 32.11466438 46.49268703 36.05850373 46 40 C30.82 40 15.64 40 0 40 C0 26.8 0 13.6 0 0 Z " fill="#039BE5" transform="translate(240,170)"/>
<path d="M0 0 C15.18 0 30.36 0 46 0 C46 13.2 46 26.4 46 40 C31.48 40 16.96 40 2 40 C1.37049816 34.33448343 0.8491663 28.99296383 0.68359375 23.33984375 C0.64548584 22.10355225 0.60737793 20.86726074 0.56811523 19.59350586 C0.52501221 18.05702393 0.48190918 16.52054199 0.4375 14.9375 C0.293125 10.008125 0.14875 5.07875 0 0 Z " fill="#EDEDED" transform="translate(194,210)"/>
</svg>
