<?xml version="1.0" encoding="UTF-8"?>
<svg version="1.1" xmlns="http://www.w3.org/2000/svg" width="1014" height="1011">
<path d="M0 0 C1.26341469 0.50759102 1.26341469 0.50759102 2.55235291 1.0254364 C5.33294138 2.14634068 8.10510982 3.28668245 10.87768555 4.42724609 C12.84456816 5.22448908 14.81196049 6.02047556 16.77983093 6.8152771 C21.97784115 8.91849206 27.16900272 11.03811508 32.35882568 13.16143799 C37.50650907 15.26457944 42.6599865 17.35340512 47.81323242 19.44287109 C53.88187877 21.90459728 59.94990982 24.3677954 66.01513672 26.8379364 C77.70474103 31.59865524 89.40473525 36.33126088 101.12768555 41.00927734 C101.82048552 41.28575293 102.51328548 41.56222851 103.22707939 41.84708214 C104.62622578 42.4053903 106.02537632 42.96368808 107.42453098 43.52197552 C108.4675986 43.93818016 108.4675986 43.93818016 109.53173828 44.36279297 C110.22828742 44.64069325 110.92483656 44.91859354 111.64249325 45.20491505 C120.52035012 48.74853276 129.38844857 52.31643615 138.2565918 55.88427734 C139.10897871 56.22720825 139.96136562 56.57013916 140.83958244 56.92346191 C145.17452427 58.66762615 149.509313 60.41217042 153.84399414 62.15698242 C157.32886575 63.55971031 160.81389248 64.96205165 164.29907227 66.36401367 C165.15936916 66.71010366 166.01966606 67.05619366 166.90603256 67.41277122 C168.64206578 68.11111175 170.37814213 68.80934508 172.11426163 69.50747108 C176.40412105 71.23297933 180.69270712 72.96152954 184.97869873 74.69662476 C192.69065253 77.81654897 200.40740378 80.91806827 208.16258812 83.92926311 C211.59501015 85.26402359 215.02158168 86.61342502 218.44763565 87.96443367 C220.05947866 88.59540122 221.67410977 89.21929987 223.29165268 89.83550835 C239.81369296 96.13359127 239.81369296 96.13359127 243.2019043 102.82568359 C245.54524862 110.49525188 245.48482677 118.31983936 245.45637989 126.26500988 C245.4587734 127.60989838 245.46204094 128.95478556 245.46609649 130.29967007 C245.47468992 133.98725868 245.47090115 137.67474508 245.46504077 141.36233518 C245.46086225 145.37720243 245.46827704 149.3920513 245.47419327 153.40691406 C245.48295135 160.4407771 245.48426878 167.47461102 245.48069 174.50847816 C245.47538234 184.96792314 245.48147885 195.42733993 245.48977294 205.88678184 C245.5050156 225.65227603 245.50671782 245.4177574 245.50424991 265.18325623 C245.50241778 280.44230497 245.50417516 295.70134951 245.50847435 310.96039772 C245.50907675 313.1520461 245.50967794 315.34369447 245.51027795 317.53534285 C245.51118519 320.83783617 245.51209386 324.1403295 245.5130103 327.44282283 C245.52143993 358.1471756 245.52577535 388.85152678 245.52160358 419.55588055 C245.52144721 420.71342344 245.52129083 421.87096634 245.52112972 423.06358629 C245.52032392 428.93060037 245.51947815 434.79761445 245.51861642 440.66462853 C245.51844533 441.82985851 245.51827424 442.99508849 245.51809797 444.19562846 C245.51775131 446.55200434 245.51740278 448.90838021 245.51705238 451.26475608 C245.51169261 487.94759103 245.51963283 524.63040196 245.53808594 561.31323242 C245.55878835 602.51581261 245.56953221 643.71837791 245.56551045 684.92096359 C245.56511509 689.31144798 245.56475355 693.70193237 245.56441307 698.09241676 C245.56432234 699.17348662 245.56423161 700.25455649 245.56413813 701.36838604 C245.56297089 717.70653635 245.56962986 734.04467166 245.58022499 750.38281822 C245.59225605 768.95430718 245.59385999 787.52576302 245.58143482 806.09725245 C245.57478944 816.49603567 245.57647589 826.89473978 245.59002334 837.29351672 C245.59823807 844.23363614 245.59560925 851.173696 245.58404807 858.11381053 C245.5777621 862.07181529 245.57626648 866.02966512 245.5879114 869.98766121 C245.59840463 873.5871974 245.59513208 877.18644657 245.58080688 880.78596715 C245.57678455 882.69270605 245.58749867 884.59945859 245.59878394 886.50616834 C245.55388682 893.53400202 245.24665805 898.97659191 240.74916077 904.66220093 C235.82218667 908.7846863 230.60487737 911.07932569 224.63549805 913.36474609 C223.60675064 913.77171722 222.57800323 914.17868835 221.51808167 914.59799194 C218.23017739 915.89536521 214.93518647 917.17347409 211.6394043 918.45068359 C209.51584623 919.28401754 207.39279495 920.11864409 205.27026367 920.95458984 C200.86767143 922.68700207 196.46261543 924.41295705 192.05615234 926.13549805 C182.02557105 930.06396807 172.03048432 934.08108781 162.03164291 938.0894537 C152.87500803 941.75958674 143.71386973 945.41845805 134.55345345 949.07913971 C128.04372014 951.68078595 121.53440948 954.28348942 115.02504826 956.88606644 C109.45535693 959.11289397 103.88553639 961.33939719 98.31542969 963.56518555 C73.18517293 973.60741469 48.06001119 983.65629993 23.03222656 993.9519043 C19.26010636 995.50358905 15.48460641 997.04667796 11.70581055 998.58203125 C10.25264441 999.17496303 8.80121245 999.77215834 7.35131836 1000.37304688 C-11.51026823 1008.18054067 -11.51026823 1008.18054067 -19.02842045 1005.8049736 C-23.901266 1003.58328182 -27.31671826 999.84345848 -31.02696228 996.07110596 C-31.82767499 995.27310538 -32.6283877 994.4751048 -33.45336443 993.65292239 C-36.13117522 990.97935475 -38.79444137 988.29175726 -41.45800781 985.60400391 C-43.37508637 983.68192377 -45.29519384 981.7628799 -47.2151947 979.84371948 C-51.34732754 975.7102749 -55.47213586 971.56963668 -59.59208488 967.42404938 C-65.55698134 961.42214645 -71.5334368 955.43186195 -77.5128308 949.44440612 C-87.22518139 939.71842803 -96.92893657 929.98392195 -106.62695312 920.24365234 C-116.02755773 910.80214107 -125.43089654 901.36337106 -134.83886719 891.92919922 C-135.41795603 891.34849408 -135.99704487 890.76778894 -136.59368186 890.16948667 C-142.92132161 883.8243516 -149.2497818 877.48003539 -155.57888889 871.13636398 C-156.13584377 870.57812128 -156.69279864 870.01987857 -157.26663094 869.44471942 C-160.60732651 866.09630282 -160.60732651 866.09630282 -163.94810791 862.74797186 C-170.45755587 856.22391027 -176.96450133 849.69737524 -183.46694482 843.16633198 C-187.54848634 839.06688778 -191.63161032 834.96902478 -195.71595614 830.87237456 C-198.06968608 828.51136663 -200.42223109 826.1492075 -202.77307892 823.78532791 C-205.32713824 821.21728384 -207.88432365 818.65239178 -210.44224548 816.0881958 C-211.17679378 815.34800618 -211.91134208 814.60781657 -212.66814941 813.84519696 C-216.59368719 809.91696955 -220.62404002 806.19503714 -224.8282643 802.56812823 C-228.23381407 799.55569685 -231.42448692 796.33326547 -234.6315918 793.11244202 C-235.37755017 792.36733807 -236.12350855 791.62223411 -236.89207172 790.85455126 C-239.37093648 788.37732305 -241.8462292 785.89655728 -244.3215332 783.41577148 C-246.10572687 781.63129552 -247.8901412 779.84704017 -249.67475891 778.06298828 C-253.50612741 774.23184691 -257.33596608 770.39918666 -261.16439819 766.56511116 C-266.69955678 761.0217987 -272.23750009 755.48127507 -277.77611005 749.94141131 C-286.76375086 740.95158607 -295.74915984 731.95953357 -304.7331543 722.96606445 C-313.45626105 714.23376779 -322.18042559 705.50253015 -330.90600586 696.77270508 C-331.44455027 696.23389794 -331.98309468 695.69509081 -332.53795862 695.13995618 C-335.2398932 692.43671649 -337.9418485 689.73349751 -340.64381409 687.03028882 C-363.03178675 664.63196252 -385.41609514 642.22997768 -407.7980957 619.82568359 C-409.0669808 620.7765776 -410.33575874 621.7276146 -411.60449219 622.67871094 C-412.31105453 623.20830414 -413.01761688 623.73789734 -413.74559021 624.28353882 C-421.99017949 630.47808998 -430.09772164 636.83445181 -438.13793945 643.29077148 C-445.22278511 648.97810588 -452.37500501 654.5784635 -459.52758789 660.18017578 C-466.14372878 665.36337922 -472.74087351 670.56806054 -479.2980957 675.82568359 C-486.99794881 681.9994755 -494.75766143 688.09497646 -502.52758789 694.18017578 C-504.2640706 695.54056748 -506.00001872 696.90163659 -507.7355957 698.26318359 C-508.31277344 698.71588623 -508.88995117 699.16858887 -509.48461914 699.63500977 C-513.0922941 702.46996923 -516.67814177 705.33056075 -520.25317383 708.20654297 C-526.18481279 712.97805065 -532.17153589 717.66095837 -538.2355957 722.26318359 C-544.5863906 727.08580494 -550.8136486 732.03680918 -556.98486328 737.08666992 C-562.95467747 741.96931765 -569.00676 746.74036324 -575.0847168 751.48730469 C-577.97132393 753.74213232 -580.85414007 756.00177782 -583.7355957 758.26318359 C-584.31067871 758.7145166 -584.88576172 759.16584961 -585.47827148 759.63085938 C-589.77075982 763.0053218 -594.03826514 766.41012397 -598.2980957 769.82568359 C-604.85213363 775.08075348 -611.44649866 780.28222045 -618.05981445 785.46240234 C-619.81824692 786.84148758 -621.5741655 788.22371211 -623.3293457 789.60693359 C-626.23406908 791.89608646 -629.14373462 794.1788308 -632.0559082 796.45849609 C-633.23750383 797.38575723 -634.41713211 798.31552979 -635.5949707 799.24755859 C-637.34600832 800.63316227 -639.10272512 802.01126475 -640.8605957 803.38818359 C-641.88282227 804.19384766 -642.90504883 804.99951172 -643.95825195 805.82958984 C-649.13167041 809.46592661 -652.26681512 810.04253393 -658.41499329 809.28416443 C-662.0948632 808.5762008 -665.14865109 807.09508534 -668.4465332 805.36083984 C-669.13714844 805.01194702 -669.82776367 804.6630542 -670.53930664 804.30358887 C-672.75772682 803.17856139 -674.96528466 802.03386903 -677.1730957 800.88818359 C-678.70978752 800.1037612 -680.2470637 799.32048256 -681.78491211 798.53833008 C-690.34747084 794.17180362 -698.87845764 789.74050311 -707.36206055 785.22241211 C-712.79567577 782.33012727 -718.28430901 779.5617054 -723.7980957 776.82568359 C-730.56828302 773.46407227 -737.29713779 770.03481821 -743.9855957 766.51318359 C-745.11578125 765.91860352 -745.11578125 765.91860352 -746.26879883 765.31201172 C-748.44992818 764.15843664 -750.62523554 762.99475447 -752.7980957 761.82568359 C-753.61109131 761.39070557 -754.42408691 760.95572754 -755.26171875 760.50756836 C-756.06520752 760.07114014 -756.86869629 759.63471191 -757.6965332 759.18505859 C-758.42404785 758.79157227 -759.1515625 758.39808594 -759.90112305 757.99267578 C-764.68475003 755.04985249 -766.37038024 751.05184896 -767.7980957 745.82568359 C-767.98230559 743.00685502 -768.07046995 740.28941562 -768.05536461 737.47284889 C-768.05887068 736.64270787 -768.06237676 735.81256684 -768.06598908 734.95727003 C-768.07530958 732.16933288 -768.07037807 729.38160432 -768.06552124 726.59365845 C-768.06925716 724.57715255 -768.07385845 722.56064809 -768.07925189 720.54414594 C-768.0915043 714.99776079 -768.09121878 709.45143586 -768.08886313 703.90504026 C-768.08845554 697.92537725 -768.09948858 691.94573369 -768.10897827 685.96607971 C-768.12560111 674.24931733 -768.13111428 662.53257 -768.13220303 650.8157983 C-768.13312202 641.29417164 -768.13723819 631.77255151 -768.14360428 622.25092697 C-768.14539935 619.51041807 -768.14717898 616.76990915 -768.14895403 614.02940023 C-768.14939613 613.34810948 -768.14983823 612.66681874 -768.15029372 611.96488282 C-768.16260217 592.80137058 -768.17049483 573.63786061 -768.16960716 554.47434425 C-768.16957601 553.75182343 -768.16954485 553.02930261 -768.16951275 552.28488721 C-768.16934653 548.62282327 -768.16914845 544.96075934 -768.16894333 541.2986954 C-768.16890344 540.57139152 -768.16886355 539.84408764 -768.16882245 539.09474425 C-768.16874158 537.62395896 -768.16865798 536.15317367 -768.16857167 534.68238838 C-768.16734597 511.79588326 -768.18236272 488.90943739 -768.2097168 466.02294922 C-768.24043345 440.31245455 -768.25764957 414.6019988 -768.25579035 388.89148462 C-768.25564109 386.15034699 -768.25554368 383.40920937 -768.25548172 380.66807175 C-768.25545841 379.99312955 -768.2554351 379.31818735 -768.25541109 378.62279236 C-768.25534953 367.75864986 -768.26812412 356.89455878 -768.28534625 346.03043157 C-768.30229434 335.11345917 -768.30393965 324.19656567 -768.29112761 313.27958752 C-768.28458363 307.36470844 -768.28453245 301.45001585 -768.30183411 295.53515434 C-768.31750632 290.12175675 -768.31476105 284.70869442 -768.29726584 279.2953053 C-768.29418306 277.33573065 -768.29787618 275.37613134 -768.30898599 273.41658576 C-768.32308311 270.75405067 -768.31253987 268.09269544 -768.29587364 265.43020058 C-768.30581 264.66840685 -768.31574636 263.90661312 -768.32598382 263.12173474 C-768.24001612 256.63108768 -766.23144994 251.28835865 -761.63012695 246.6315918 C-757.7067707 244.12977575 -753.64226483 242.01719259 -749.4855957 239.93115234 C-748.57214386 239.46681793 -747.65869202 239.00248352 -746.71755981 238.52407837 C-743.74698719 237.01529432 -740.77252884 235.51434031 -737.7980957 234.01318359 C-735.74420203 232.9711397 -733.69065553 231.92841122 -731.63745117 230.88500977 C-728.56134017 229.32185322 -725.48505337 227.75905814 -722.40768433 226.19837952 C-714.22652806 222.04915242 -706.06714452 217.85970243 -697.9230957 213.63818359 C-696.79403809 213.05367432 -695.66498047 212.46916504 -694.50170898 211.86694336 C-689.00525181 209.01826368 -683.51577973 206.15662132 -678.0324707 203.28271484 C-676.95852051 202.72028076 -675.88457031 202.15784668 -674.77807617 201.57836914 C-672.77071922 200.52607721 -670.7644561 199.47169484 -668.75952148 198.41479492 C-667.44443604 197.7248645 -667.44443604 197.7248645 -666.1027832 197.02099609 C-665.33949707 196.61896973 -664.57621094 196.21694336 -663.78979492 195.80273438 C-659.60394199 193.74931645 -655.38859391 192.98614617 -650.7980957 193.82568359 C-645.42249643 196.5071291 -641.00728124 199.91441034 -636.4230957 203.76318359 C-630.82580132 208.39102266 -625.15695818 212.88740613 -619.3605957 217.26318359 C-612.73188893 222.27925529 -606.2915009 227.48697365 -599.89868164 232.79931641 C-594.67641335 237.1298006 -589.35830396 241.30090956 -583.9621582 245.41162109 C-575.43210054 251.91973917 -567.04607035 258.60260311 -558.7355957 265.38818359 C-552.89871145 270.1530298 -546.9896155 274.80013892 -541.0012207 279.37255859 C-532.02941682 286.22556008 -523.21388719 293.28073424 -514.40625 300.3425293 C-510.1994565 303.7126486 -505.97590039 307.0603345 -501.7355957 310.38818359 C-501.1605127 310.8395166 -500.58542969 311.29084961 -499.99291992 311.75585938 C-497.12176257 314.00744695 -494.2479335 316.25557931 -491.37231445 318.50146484 C-485.10736039 323.40107137 -478.89562547 328.35711287 -472.7355957 333.38818359 C-467.9541695 337.2924725 -463.14386422 341.14443476 -458.2355957 344.88818359 C-452.91383452 348.94849028 -447.67531216 353.1012113 -442.45629883 357.29248047 C-436.53587973 362.04463598 -430.56982713 366.73692075 -424.59350586 371.41845703 C-421.36758175 373.94690775 -418.14562297 376.48040608 -414.9230957 379.01318359 C-413.73821606 379.94419379 -412.5533218 380.87518537 -411.3684082 381.80615234 C-410.09610352 382.80582031 -410.09610352 382.80582031 -408.7980957 383.82568359 C-403.99279409 379.81803854 -399.46208723 375.62991616 -395.052948 371.19241047 C-394.40876301 370.54818094 -393.76457802 369.90395141 -393.10087228 369.24019977 C-390.94921112 367.08717851 -388.8011634 364.93058865 -386.65307617 362.77400208 C-385.09306996 361.21156673 -383.53283623 359.64935852 -381.97239494 358.0873577 C-378.58343149 354.69402341 -375.19608344 351.29908744 -371.80995941 347.90291977 C-366.77468701 342.85271794 -361.73663024 337.80530189 -356.69780654 332.75864361 C-348.7390113 324.78739405 -340.78188739 316.81447875 -332.82587582 308.84045092 C-320.19948881 296.18555145 -307.56788049 283.53587379 -294.93450686 270.88794942 C-292.24466818 268.19499699 -289.55488043 265.50199368 -286.86509132 262.80899173 C-286.32893705 262.27219744 -285.79278277 261.73540314 -285.2403814 261.18234235 C-284.15394896 260.09461253 -283.06751693 259.00688231 -281.98108529 257.9191517 C-280.89066928 256.82743325 -279.80025178 255.73571628 -278.7098328 254.6440008 C-265.8575598 241.77644007 -253.00617973 228.90798781 -240.15551758 216.03881836 C-239.59336256 215.47585742 -239.03120754 214.91289647 -238.45201752 214.33287611 C-220.20983214 196.06446035 -201.97288073 177.79082858 -183.73809502 159.5150271 C-164.98633448 140.72116445 -146.22791476 121.93397139 -127.46161062 103.15463056 C-124.81248819 100.50365524 -122.16344937 97.85259639 -119.51446533 95.20148277 C-118.99313191 94.67973316 -118.4717985 94.15798355 -117.9346671 93.62042335 C-109.54084403 85.21947745 -101.15420415 76.81139556 -92.77031559 68.40053655 C-84.3487119 59.95210359 -75.9199732 51.51084444 -67.48383188 43.07692746 C-62.91283826 38.50651285 -58.34521407 33.93285507 -53.78623199 29.35045624 C-49.61519713 25.15812943 -45.43509754 20.97507149 -41.24750543 16.79928502 C-39.73197693 15.28475576 -38.21985278 13.76681089 -36.71145034 12.24518428 C-34.66447964 10.1812498 -32.60560199 8.1299749 -30.54324341 6.0814333 C-29.95719086 5.48458685 -29.37113831 4.88774039 -28.76732659 4.27280769 C-19.90755402 -4.44774894 -11.03090305 -4.60236125 0 0 Z " fill="#0060B1" transform="translate(768.798095703125,4.17431640625)"/>
<path d="M0 0 C1.26341469 0.50759102 1.26341469 0.50759102 2.55235291 1.0254364 C5.33294138 2.14634068 8.10510982 3.28668245 10.87768555 4.42724609 C12.84456816 5.22448908 14.81196049 6.02047556 16.77983093 6.8152771 C21.97784115 8.91849206 27.16900272 11.03811508 32.35882568 13.16143799 C37.50650907 15.26457944 42.6599865 17.35340512 47.81323242 19.44287109 C53.88187877 21.90459728 59.94990982 24.3677954 66.01513672 26.8379364 C77.70474103 31.59865524 89.40473525 36.33126088 101.12768555 41.00927734 C101.82048552 41.28575293 102.51328548 41.56222851 103.22707939 41.84708214 C104.62622578 42.4053903 106.02537632 42.96368808 107.42453098 43.52197552 C108.4675986 43.93818016 108.4675986 43.93818016 109.53173828 44.36279297 C110.22828742 44.64069325 110.92483656 44.91859354 111.64249325 45.20491505 C120.52035012 48.74853276 129.38844857 52.31643615 138.2565918 55.88427734 C139.10897871 56.22720825 139.96136562 56.57013916 140.83958244 56.92346191 C145.17452427 58.66762615 149.509313 60.41217042 153.84399414 62.15698242 C157.32886575 63.55971031 160.81389248 64.96205165 164.29907227 66.36401367 C165.15936916 66.71010366 166.01966606 67.05619366 166.90603256 67.41277122 C168.64206578 68.11111175 170.37814213 68.80934508 172.11426163 69.50747108 C176.40412105 71.23297933 180.69270712 72.96152954 184.97869873 74.69662476 C192.69065253 77.81654897 200.40740378 80.91806827 208.16258812 83.92926311 C211.59501015 85.26402359 215.02158168 86.61342502 218.44763565 87.96443367 C220.05947866 88.59540122 221.67410977 89.21929987 223.29165268 89.83550835 C239.81369296 96.13359127 239.81369296 96.13359127 243.2019043 102.82568359 C245.54524862 110.49525188 245.48482677 118.31983936 245.45637989 126.26500988 C245.4587734 127.60989838 245.46204094 128.95478556 245.46609649 130.29967007 C245.47468992 133.98725868 245.47090115 137.67474508 245.46504077 141.36233518 C245.46086225 145.37720243 245.46827704 149.3920513 245.47419327 153.40691406 C245.48295135 160.4407771 245.48426878 167.47461102 245.48069 174.50847816 C245.47538234 184.96792314 245.48147885 195.42733993 245.48977294 205.88678184 C245.5050156 225.65227603 245.50671782 245.4177574 245.50424991 265.18325623 C245.50241778 280.44230497 245.50417516 295.70134951 245.50847435 310.96039772 C245.50907675 313.1520461 245.50967794 315.34369447 245.51027795 317.53534285 C245.51118519 320.83783617 245.51209386 324.1403295 245.5130103 327.44282283 C245.52143993 358.1471756 245.52577535 388.85152678 245.52160358 419.55588055 C245.52144721 420.71342344 245.52129083 421.87096634 245.52112972 423.06358629 C245.52032392 428.93060037 245.51947815 434.79761445 245.51861642 440.66462853 C245.51844533 441.82985851 245.51827424 442.99508849 245.51809797 444.19562846 C245.51775131 446.55200434 245.51740278 448.90838021 245.51705238 451.26475608 C245.51169261 487.94759103 245.51963283 524.63040196 245.53808594 561.31323242 C245.55878835 602.51581261 245.56953221 643.71837791 245.56551045 684.92096359 C245.56511509 689.31144798 245.56475355 693.70193237 245.56441307 698.09241676 C245.56432234 699.17348662 245.56423161 700.25455649 245.56413813 701.36838604 C245.56297089 717.70653635 245.56962986 734.04467166 245.58022499 750.38281822 C245.59225605 768.95430718 245.59385999 787.52576302 245.58143482 806.09725245 C245.57478944 816.49603567 245.57647589 826.89473978 245.59002334 837.29351672 C245.59823807 844.23363614 245.59560925 851.173696 245.58404807 858.11381053 C245.5777621 862.07181529 245.57626648 866.02966512 245.5879114 869.98766121 C245.59840463 873.5871974 245.59513208 877.18644657 245.58080688 880.78596715 C245.57678455 882.69270605 245.58749867 884.59945859 245.59878394 886.50616834 C245.55388682 893.53400202 245.24665805 898.97659191 240.74916077 904.66220093 C235.82218667 908.7846863 230.60487737 911.07932569 224.63549805 913.36474609 C223.60675064 913.77171722 222.57800323 914.17868835 221.51808167 914.59799194 C218.23017739 915.89536521 214.93518647 917.17347409 211.6394043 918.45068359 C209.51584623 919.28401754 207.39279495 920.11864409 205.27026367 920.95458984 C200.86767143 922.68700207 196.46261543 924.41295705 192.05615234 926.13549805 C182.02557105 930.06396807 172.03048432 934.08108781 162.03164291 938.0894537 C152.87500803 941.75958674 143.71386973 945.41845805 134.55345345 949.07913971 C128.04372014 951.68078595 121.53440948 954.28348942 115.02504826 956.88606644 C109.45535693 959.11289397 103.88553639 961.33939719 98.31542969 963.56518555 C73.18517293 973.60741469 48.06001119 983.65629993 23.03222656 993.9519043 C19.26010636 995.50358905 15.48460641 997.04667796 11.70581055 998.58203125 C10.25264441 999.17496303 8.80121245 999.77215834 7.35131836 1000.37304688 C-11.51026823 1008.18054067 -11.51026823 1008.18054067 -19.02842045 1005.8049736 C-23.901266 1003.58328182 -27.31671826 999.84345848 -31.02696228 996.07110596 C-31.82767499 995.27310538 -32.6283877 994.4751048 -33.45336443 993.65292239 C-36.13117522 990.97935475 -38.79444137 988.29175726 -41.45800781 985.60400391 C-43.37508637 983.68192377 -45.29519384 981.7628799 -47.2151947 979.84371948 C-51.34732754 975.7102749 -55.47213586 971.56963668 -59.59208488 967.42404938 C-65.55698134 961.42214645 -71.5334368 955.43186195 -77.5128308 949.44440612 C-87.22518139 939.71842803 -96.92893657 929.98392195 -106.62695312 920.24365234 C-116.02755773 910.80214107 -125.43089654 901.36337106 -134.83886719 891.92919922 C-135.41795603 891.34849408 -135.99704487 890.76778894 -136.59368186 890.16948667 C-142.92132161 883.8243516 -149.2497818 877.48003539 -155.57888889 871.13636398 C-156.13584377 870.57812128 -156.69279864 870.01987857 -157.26663094 869.44471942 C-160.60732651 866.09630282 -160.60732651 866.09630282 -163.94810791 862.74797186 C-170.45755587 856.22391027 -176.96450133 849.69737524 -183.46694482 843.16633198 C-187.54848634 839.06688778 -191.63161032 834.96902478 -195.71595614 830.87237456 C-198.06968608 828.51136663 -200.42223109 826.1492075 -202.77307892 823.78532791 C-205.32713824 821.21728384 -207.88432365 818.65239178 -210.44224548 816.0881958 C-211.17679378 815.34800618 -211.91134208 814.60781657 -212.66814941 813.84519696 C-216.59368719 809.91696955 -220.62404002 806.19503714 -224.8282643 802.56812823 C-228.23381407 799.55569685 -231.42448692 796.33326547 -234.6315918 793.11244202 C-235.37755017 792.36733807 -236.12350855 791.62223411 -236.89207172 790.85455126 C-239.37093648 788.37732305 -241.8462292 785.89655728 -244.3215332 783.41577148 C-246.10572687 781.63129552 -247.8901412 779.84704017 -249.67475891 778.06298828 C-253.50612741 774.23184691 -257.33596608 770.39918666 -261.16439819 766.56511116 C-266.69955678 761.0217987 -272.23750009 755.48127507 -277.77611005 749.94141131 C-286.76375086 740.95158607 -295.74915984 731.95953357 -304.7331543 722.96606445 C-313.45626105 714.23376779 -322.18042559 705.50253015 -330.90600586 696.77270508 C-331.44455027 696.23389794 -331.98309468 695.69509081 -332.53795862 695.13995618 C-335.2398932 692.43671649 -337.9418485 689.73349751 -340.64381409 687.03028882 C-363.03178675 664.63196252 -385.41609514 642.22997768 -407.7980957 619.82568359 C-409.0669808 620.7765776 -410.33575874 621.7276146 -411.60449219 622.67871094 C-412.31105453 623.20830414 -413.01761688 623.73789734 -413.74559021 624.28353882 C-421.99017949 630.47808998 -430.09772164 636.83445181 -438.13793945 643.29077148 C-445.22278511 648.97810588 -452.37500501 654.5784635 -459.52758789 660.18017578 C-466.14372878 665.36337922 -472.74087351 670.56806054 -479.2980957 675.82568359 C-486.99794881 681.9994755 -494.75766143 688.09497646 -502.52758789 694.18017578 C-504.2640706 695.54056748 -506.00001872 696.90163659 -507.7355957 698.26318359 C-508.31277344 698.71588623 -508.88995117 699.16858887 -509.48461914 699.63500977 C-513.0922941 702.46996923 -516.67814177 705.33056075 -520.25317383 708.20654297 C-526.18481279 712.97805065 -532.17153589 717.66095837 -538.2355957 722.26318359 C-544.5863906 727.08580494 -550.8136486 732.03680918 -556.98486328 737.08666992 C-562.95467747 741.96931765 -569.00676 746.74036324 -575.0847168 751.48730469 C-577.97132393 753.74213232 -580.85414007 756.00177782 -583.7355957 758.26318359 C-584.31067871 758.7145166 -584.88576172 759.16584961 -585.47827148 759.63085938 C-589.77075982 763.0053218 -594.03826514 766.41012397 -598.2980957 769.82568359 C-604.85213363 775.08075348 -611.44649866 780.28222045 -618.05981445 785.46240234 C-619.81824692 786.84148758 -621.5741655 788.22371211 -623.3293457 789.60693359 C-626.23406908 791.89608646 -629.14373462 794.1788308 -632.0559082 796.45849609 C-633.23750383 797.38575723 -634.41713211 798.31552979 -635.5949707 799.24755859 C-637.34600832 800.63316227 -639.10272512 802.01126475 -640.8605957 803.38818359 C-641.88282227 804.19384766 -642.90504883 804.99951172 -643.95825195 805.82958984 C-649.13167041 809.46592661 -652.26681512 810.04253393 -658.41499329 809.28416443 C-662.0948632 808.5762008 -665.14865109 807.09508534 -668.4465332 805.36083984 C-669.13714844 805.01194702 -669.82776367 804.6630542 -670.53930664 804.30358887 C-672.75772682 803.17856139 -674.96528466 802.03386903 -677.1730957 800.88818359 C-678.70978752 800.1037612 -680.2470637 799.32048256 -681.78491211 798.53833008 C-690.34747084 794.17180362 -698.87845764 789.74050311 -707.36206055 785.22241211 C-712.79567577 782.33012727 -718.28430901 779.5617054 -723.7980957 776.82568359 C-730.56828302 773.46407227 -737.29713779 770.03481821 -743.9855957 766.51318359 C-745.11578125 765.91860352 -745.11578125 765.91860352 -746.26879883 765.31201172 C-748.44992818 764.15843664 -750.62523554 762.99475447 -752.7980957 761.82568359 C-753.61109131 761.39070557 -754.42408691 760.95572754 -755.26171875 760.50756836 C-756.06520752 760.07114014 -756.86869629 759.63471191 -757.6965332 759.18505859 C-758.42404785 758.79157227 -759.1515625 758.39808594 -759.90112305 757.99267578 C-764.68475003 755.04985249 -766.37038024 751.05184896 -767.7980957 745.82568359 C-767.98230559 743.00685502 -768.07046995 740.28941562 -768.05536461 737.47284889 C-768.05887068 736.64270787 -768.06237676 735.81256684 -768.06598908 734.95727003 C-768.07530958 732.16933288 -768.07037807 729.38160432 -768.06552124 726.59365845 C-768.06925716 724.57715255 -768.07385845 722.56064809 -768.07925189 720.54414594 C-768.0915043 714.99776079 -768.09121878 709.45143586 -768.08886313 703.90504026 C-768.08845554 697.92537725 -768.09948858 691.94573369 -768.10897827 685.96607971 C-768.12560111 674.24931733 -768.13111428 662.53257 -768.13220303 650.8157983 C-768.13312202 641.29417164 -768.13723819 631.77255151 -768.14360428 622.25092697 C-768.14539935 619.51041807 -768.14717898 616.76990915 -768.14895403 614.02940023 C-768.14939613 613.34810948 -768.14983823 612.66681874 -768.15029372 611.96488282 C-768.16260217 592.80137058 -768.17049483 573.63786061 -768.16960716 554.47434425 C-768.16957601 553.75182343 -768.16954485 553.02930261 -768.16951275 552.28488721 C-768.16934653 548.62282327 -768.16914845 544.96075934 -768.16894333 541.2986954 C-768.16890344 540.57139152 -768.16886355 539.84408764 -768.16882245 539.09474425 C-768.16874158 537.62395896 -768.16865798 536.15317367 -768.16857167 534.68238838 C-768.16734597 511.79588326 -768.18236272 488.90943739 -768.2097168 466.02294922 C-768.24043345 440.31245455 -768.25764957 414.6019988 -768.25579035 388.89148462 C-768.25564109 386.15034699 -768.25554368 383.40920937 -768.25548172 380.66807175 C-768.25545841 379.99312955 -768.2554351 379.31818735 -768.25541109 378.62279236 C-768.25534953 367.75864986 -768.26812412 356.89455878 -768.28534625 346.03043157 C-768.30229434 335.11345917 -768.30393965 324.19656567 -768.29112761 313.27958752 C-768.28458363 307.36470844 -768.28453245 301.45001585 -768.30183411 295.53515434 C-768.31750632 290.12175675 -768.31476105 284.70869442 -768.29726584 279.2953053 C-768.29418306 277.33573065 -768.29787618 275.37613134 -768.30898599 273.41658576 C-768.32308311 270.75405067 -768.31253987 268.09269544 -768.29587364 265.43020058 C-768.30581 264.66840685 -768.31574636 263.90661312 -768.32598382 263.12173474 C-768.24001612 256.63108768 -766.23144994 251.28835865 -761.63012695 246.6315918 C-757.7067707 244.12977575 -753.64226483 242.01719259 -749.4855957 239.93115234 C-748.57214386 239.46681793 -747.65869202 239.00248352 -746.71755981 238.52407837 C-743.74698719 237.01529432 -740.77252884 235.51434031 -737.7980957 234.01318359 C-735.74420203 232.9711397 -733.69065553 231.92841122 -731.63745117 230.88500977 C-728.56134017 229.32185322 -725.48505337 227.75905814 -722.40768433 226.19837952 C-714.22652806 222.04915242 -706.06714452 217.85970243 -697.9230957 213.63818359 C-696.79403809 213.05367432 -695.66498047 212.46916504 -694.50170898 211.86694336 C-689.00525181 209.01826368 -683.51577973 206.15662132 -678.0324707 203.28271484 C-676.95852051 202.72028076 -675.88457031 202.15784668 -674.77807617 201.57836914 C-672.77071922 200.52607721 -670.7644561 199.47169484 -668.75952148 198.41479492 C-667.44443604 197.7248645 -667.44443604 197.7248645 -666.1027832 197.02099609 C-665.33949707 196.61896973 -664.57621094 196.21694336 -663.78979492 195.80273438 C-659.60394199 193.74931645 -655.38859391 192.98614617 -650.7980957 193.82568359 C-645.42249643 196.5071291 -641.00728124 199.91441034 -636.4230957 203.76318359 C-630.82580132 208.39102266 -625.15695818 212.88740613 -619.3605957 217.26318359 C-612.73188893 222.27925529 -606.2915009 227.48697365 -599.89868164 232.79931641 C-594.67641335 237.1298006 -589.35830396 241.30090956 -583.9621582 245.41162109 C-575.43210054 251.91973917 -567.04607035 258.60260311 -558.7355957 265.38818359 C-552.89871145 270.1530298 -546.9896155 274.80013892 -541.0012207 279.37255859 C-532.02941682 286.22556008 -523.21388719 293.28073424 -514.40625 300.3425293 C-510.1994565 303.7126486 -505.97590039 307.0603345 -501.7355957 310.38818359 C-501.1605127 310.8395166 -500.58542969 311.29084961 -499.99291992 311.75585938 C-497.12176257 314.00744695 -494.2479335 316.25557931 -491.37231445 318.50146484 C-485.10736039 323.40107137 -478.89562547 328.35711287 -472.7355957 333.38818359 C-467.9541695 337.2924725 -463.14386422 341.14443476 -458.2355957 344.88818359 C-452.91383452 348.94849028 -447.67531216 353.1012113 -442.45629883 357.29248047 C-436.53587973 362.04463598 -430.56982713 366.73692075 -424.59350586 371.41845703 C-421.36758175 373.94690775 -418.14562297 376.48040608 -414.9230957 379.01318359 C-413.73821606 379.94419379 -412.5533218 380.87518537 -411.3684082 381.80615234 C-410.09610352 382.80582031 -410.09610352 382.80582031 -408.7980957 383.82568359 C-403.99279409 379.81803854 -399.46208723 375.62991616 -395.052948 371.19241047 C-394.40876301 370.54818094 -393.76457802 369.90395141 -393.10087228 369.24019977 C-390.94921112 367.08717851 -388.8011634 364.93058865 -386.65307617 362.77400208 C-385.09306996 361.21156673 -383.53283623 359.64935852 -381.97239494 358.0873577 C-378.58343149 354.69402341 -375.19608344 351.29908744 -371.80995941 347.90291977 C-366.77468701 342.85271794 -361.73663024 337.80530189 -356.69780654 332.75864361 C-348.7390113 324.78739405 -340.78188739 316.81447875 -332.82587582 308.84045092 C-320.19948881 296.18555145 -307.56788049 283.53587379 -294.93450686 270.88794942 C-292.24466818 268.19499699 -289.55488043 265.50199368 -286.86509132 262.80899173 C-286.32893705 262.27219744 -285.79278277 261.73540314 -285.2403814 261.18234235 C-284.15394896 260.09461253 -283.06751693 259.00688231 -281.98108529 257.9191517 C-280.89066928 256.82743325 -279.80025178 255.73571628 -278.7098328 254.6440008 C-265.8575598 241.77644007 -253.00617973 228.90798781 -240.15551758 216.03881836 C-239.59336256 215.47585742 -239.03120754 214.91289647 -238.45201752 214.33287611 C-220.20983214 196.06446035 -201.97288073 177.79082858 -183.73809502 159.5150271 C-164.98633448 140.72116445 -146.22791476 121.93397139 -127.46161062 103.15463056 C-124.81248819 100.50365524 -122.16344937 97.85259639 -119.51446533 95.20148277 C-118.99313191 94.67973316 -118.4717985 94.15798355 -117.9346671 93.62042335 C-109.54084403 85.21947745 -101.15420415 76.81139556 -92.77031559 68.40053655 C-84.3487119 59.95210359 -75.9199732 51.51084444 -67.48383188 43.07692746 C-62.91283826 38.50651285 -58.34521407 33.93285507 -53.78623199 29.35045624 C-49.61519713 25.15812943 -45.43509754 20.97507149 -41.24750543 16.79928502 C-39.73197693 15.28475576 -38.21985278 13.76681089 -36.71145034 12.24518428 C-34.66447964 10.1812498 -32.60560199 8.1299749 -30.54324341 6.0814333 C-29.95719086 5.48458685 -29.37113831 4.88774039 -28.76732659 4.27280769 C-19.90755402 -4.44774894 -11.03090305 -4.60236125 0 0 Z M-18.27635401 17.04192495 C-18.9000034 17.67082837 -19.52365279 18.29973178 -20.16620064 18.94769287 C-21.1624259 19.9404566 -21.1624259 19.9404566 -22.17877692 20.95327616 C-24.43079232 23.19994536 -26.67553058 25.4537521 -28.92044067 27.70751953 C-30.5386612 29.32486894 -32.15732073 30.94177922 -33.77638423 32.55828476 C-38.24579868 37.02320333 -42.70891312 41.49437441 -47.17107892 45.96653557 C-51.48268801 50.28683689 -55.7999487 54.60148685 -60.11662802 58.91672099 C-68.95052942 67.74799065 -77.77975666 76.58391955 -86.60635757 85.42248535 C-95.34967781 94.17762727 -104.09505193 102.93070909 -112.84319687 111.68103027 C-113.38650733 112.22447821 -113.92981779 112.76792615 -114.4895922 113.32784221 C-117.24864252 116.08756917 -120.00772978 118.84725921 -122.76683126 121.60693502 C-142.32503616 141.16934417 -161.878597 160.73638924 -181.42944336 180.30615234 C-200.4264482 199.32151686 -219.4255459 218.33478628 -238.42749023 237.34521484 C-239.30560053 238.22371972 -239.30560053 238.22371972 -240.20145043 239.11997217 C-246.08018509 245.0013438 -251.95896242 250.88267277 -257.83777102 256.76397048 C-269.81428503 268.74555733 -281.79051413 280.72742893 -293.76657104 292.70947266 C-294.31724812 293.26042431 -294.8679252 293.81137597 -295.43528946 294.37902313 C-332.22766354 331.18980805 -369.0133742 368.00725171 -405.7980957 404.82568359 C-409.06544044 403.56408694 -411.63964654 402.39246647 -414.3293457 400.13818359 C-414.96815674 399.6095874 -415.60696777 399.08099121 -416.26513672 398.53637695 C-416.93601318 397.97184814 -417.60688965 397.40731934 -418.2980957 396.82568359 C-419.73316151 395.6381163 -421.16937349 394.45193278 -422.60668945 393.26708984 C-423.31680176 392.68072754 -424.02691406 392.09436523 -424.75854492 391.49023438 C-427.58165419 389.18619332 -430.46220412 386.97199503 -433.3605957 384.76318359 C-438.68235689 380.70287691 -443.92087924 376.55015589 -449.13989258 372.35888672 C-453.36185891 368.97003193 -457.60119412 365.60486308 -461.8605957 362.26318359 C-462.43559814 361.81193115 -463.01060059 361.36067871 -463.60302734 360.89575195 C-466.47423241 358.64403993 -469.34816782 356.39585824 -472.22387695 354.14990234 C-478.48883102 349.25029582 -484.70056593 344.29425432 -490.8605957 339.26318359 C-495.64202191 335.35889469 -500.45232718 331.50693243 -505.3605957 327.76318359 C-510.68235689 323.70287691 -515.92087924 319.55015589 -521.13989258 315.35888672 C-525.36185793 311.97003272 -529.60113208 308.604783 -533.8605957 305.26318359 C-534.43487305 304.81265625 -535.00915039 304.36212891 -535.60083008 303.89794922 C-537.33284293 302.54000438 -539.0653649 301.18271218 -540.7980957 299.82568359 C-548.6281538 293.69339077 -556.43079018 287.53012701 -564.19018555 281.30859375 C-570.69012676 276.10157013 -577.24129589 270.96079446 -583.7980957 265.82568359 C-591.6281538 259.69339077 -599.43079018 253.53012701 -607.19018555 247.30859375 C-613.11544886 242.56193759 -619.08306917 237.87052379 -625.05981445 233.18896484 C-627.40925024 231.34637363 -629.75413884 229.49804298 -632.09863281 227.64916992 C-633.26410804 226.7323897 -634.43156246 225.81811945 -635.60107422 224.90649414 C-638.5554693 222.60335683 -641.47677382 220.27230787 -644.35668945 217.87646484 C-644.93475342 217.4060376 -645.51281738 216.93561035 -646.10839844 216.45092773 C-647.70136403 215.15441348 -649.2814291 213.8420951 -650.8605957 212.52880859 C-653.63512322 210.60480287 -653.63512322 210.60480287 -656.59106445 210.76318359 C-661.04396477 212.23844411 -664.99573111 214.33914947 -669.1105957 216.57568359 C-671.16290256 217.66885671 -673.21638853 218.75981772 -675.27075195 219.84912109 C-676.12441849 220.30304733 -676.12441849 220.30304733 -676.99533081 220.7661438 C-684.7415141 224.87506118 -692.55959508 228.84480768 -700.3687439 232.83227539 C-704.81020964 235.10063677 -709.24953101 237.37318443 -713.6887207 239.64599609 C-714.55119919 240.08756042 -715.41367767 240.52912476 -716.30229187 240.98406982 C-723.55675244 244.69946952 -730.80642449 248.42401597 -738.04553223 252.16925049 C-739.76091636 253.05645428 -741.47724977 253.94182188 -743.19360352 254.82714844 C-744.19746094 255.34744629 -745.20131836 255.86774414 -746.2355957 256.40380859 C-747.53303711 257.07524902 -747.53303711 257.07524902 -748.85668945 257.76025391 C-750.74374068 258.67809502 -750.74374068 258.67809502 -751.7980957 259.82568359 C-751.89696625 262.39509179 -751.9298674 264.93762714 -751.92114353 267.5075388 C-751.92229738 268.3258655 -751.92345122 269.14419221 -751.92464003 269.9873167 C-751.92731419 272.76504752 -751.92277801 275.54272187 -751.91835022 278.32044983 C-751.91878576 280.3177164 -751.91966034 282.31498292 -751.92093939 284.31224912 C-751.92318775 289.82835872 -751.91915842 295.3444491 -751.91416132 300.86055624 C-751.90986188 306.79856278 -751.91130289 312.73656815 -751.9120636 318.67457581 C-751.91258916 328.97179981 -751.90947377 339.26901795 -751.90382576 349.56624031 C-751.89791522 360.36971123 -751.89406113 371.17317963 -751.89297295 381.97665215 C-751.89290421 382.64757525 -751.89283547 383.31849835 -751.89276464 384.00975245 C-751.89242633 387.41682523 -751.89212494 390.82389801 -751.89183777 394.23097079 C-751.88973557 418.38339305 -751.88299322 442.53581202 -751.87353516 466.68823242 C-751.86435553 490.15665672 -751.85726957 513.62508012 -751.85302734 537.09350586 C-751.85289582 537.81649739 -751.85276429 538.53948893 -751.85262878 539.2843893 C-751.8513103 546.54475524 -751.85003448 553.80512118 -751.84878992 561.06548713 C-751.84625349 575.85660064 -751.84343224 590.64771409 -751.84043884 605.43882751 C-751.84030155 606.11894686 -751.84016426 606.79906621 -751.84002281 607.49979524 C-751.83081717 652.94175941 -751.81495064 698.38372168 -751.7980957 743.82568359 C-748.79213036 745.40959672 -745.78586093 746.99293186 -742.77954102 748.57617188 C-741.93787384 749.01967484 -741.09620667 749.4631778 -740.22903442 749.92012024 C-732.69051169 753.88957588 -725.12550448 757.80605946 -717.5480957 761.70068359 C-716.16762127 762.41100875 -714.78716948 763.12137794 -713.40673828 763.83178711 C-701.7710455 769.81803932 -690.12861783 775.79120253 -678.4855957 781.76318359 C-677.62663696 782.20378113 -676.76767822 782.64437866 -675.88269043 783.09832764 C-673.4418713 784.35016657 -671.00088123 785.6016714 -668.55981445 786.85302734 C-667.83213364 787.22621597 -667.10445282 787.5994046 -666.35472107 787.98390198 C-664.50329595 788.93269263 -662.65076045 789.87931579 -660.7980957 790.82568359 C-659.69171753 791.47452515 -659.69171753 791.47452515 -658.56298828 792.13647461 C-656.21566992 793.05312694 -655.12088155 792.74490394 -652.7980957 791.82568359 C-650.9916004 790.73744469 -650.9916004 790.73744469 -649.2512207 789.34130859 C-648.57937744 788.82487793 -647.90753418 788.30844727 -647.21533203 787.77636719 C-646.50014404 787.2151416 -645.78495605 786.65391602 -645.0480957 786.07568359 C-644.29874756 785.49512207 -643.54939941 784.91456055 -642.77734375 784.31640625 C-636.31954113 779.29028309 -629.97120219 774.13215948 -623.63793945 768.95068359 C-618.32365818 764.61053133 -612.91880765 760.38724049 -607.51147461 756.1640625 C-604.62486748 753.90923487 -601.74205133 751.64958937 -598.8605957 749.38818359 C-598.2855127 748.93685059 -597.71042969 748.48551758 -597.11791992 748.02050781 C-592.82543158 744.64604538 -588.55792626 741.24124322 -584.2980957 737.82568359 C-577.7424657 732.56933716 -571.14671074 727.36626299 -564.53198242 722.18457031 C-561.03282216 719.4421983 -557.53827215 716.6939509 -554.04345703 713.94604492 C-551.15489465 711.67533964 -548.26421009 709.40746374 -545.3684082 707.14599609 C-539.10422295 702.24834806 -532.89428312 697.29302329 -526.7355957 692.26318359 C-520.89877569 687.49826166 -514.98961258 682.85122603 -509.0012207 678.27880859 C-500.02941682 671.4258071 -491.21388719 664.37063294 -482.40625 657.30883789 C-475.33482274 651.64382164 -468.20196509 646.05785007 -461.06860352 640.47119141 C-454.45245994 635.28798586 -447.85548298 630.08310354 -441.2980957 624.82568359 C-430.26145982 615.98152995 -419.15810445 607.25206371 -407.7980957 598.82568359 C-405.01169763 600.09844393 -402.96532663 601.40943893 -400.80521297 603.57592267 C-400.23821599 604.13970619 -399.67121901 604.70348971 -399.08704031 605.28435758 C-398.47299703 605.90508412 -397.85895375 606.52581066 -397.2263031 607.1653471 C-396.23347901 608.15695663 -396.23347901 608.15695663 -395.22059786 609.16859868 C-392.98830239 611.40061153 -390.76327284 613.63973181 -388.53808594 615.87882996 C-386.92924726 617.4903752 -385.31996134 619.10147406 -383.71026516 620.71216279 C-379.27593553 625.15174027 -374.84785818 629.59750918 -370.42070341 634.04423988 C-366.13951976 638.3423579 -361.85361944 642.63576229 -357.56772509 646.92918213 C-349.336634 655.17493941 -341.10906713 663.42420246 -332.88397643 671.67594482 C-319.83219479 684.77000032 -306.77169257 697.85532877 -293.70839463 710.937894 C-288.68467 715.96909793 -283.66121509 721.00057117 -278.63774109 726.03202534 C-278.07962593 726.5910238 -277.52151077 727.15002226 -276.94648302 727.72596006 C-263.65905177 741.03450139 -250.37408153 754.34549818 -237.09008789 767.6574707 C-236.50875382 768.24002434 -235.92741975 768.82257798 -235.3284695 769.42278475 C-221.75962326 783.0201589 -208.19248869 796.61923747 -194.62878418 810.22174072 C-194.04511038 810.80708298 -193.46143658 811.39242524 -192.86007569 811.99550515 C-189.91684538 814.94716194 -186.97363517 817.89883877 -184.03043234 820.85052297 C-183.4487379 821.4338936 -182.86704345 822.01726422 -182.26772191 822.61831274 C-181.09362173 823.79579777 -179.91952323 824.97328447 -178.7454264 826.15077285 C-159.36650124 845.58557567 -139.97919273 865.0119824 -120.58230847 884.42886175 C-117.84571773 887.16829403 -115.10923788 889.90783704 -112.37283325 892.64745522 C-111.83426026 893.18665833 -111.29568726 893.72586143 -110.74079388 894.28140403 C-102.05730278 902.97560917 -93.38298796 911.67891499 -84.71221498 920.38580208 C-76.00635495 929.127619 -67.29171016 937.86059552 -58.56782985 946.58442994 C-53.8378217 951.31493804 -49.11237565 956.04979328 -44.39749527 960.7953949 C-40.0879398 965.13287405 -35.7672049 969.45886914 -31.43698418 973.77571503 C-29.8660279 975.34594121 -28.29936781 976.9204788 -26.73729503 978.49954262 C-24.62608071 980.63251541 -22.50030052 982.74977214 -20.36988831 984.86354351 C-19.75584503 985.49129355 -19.14180175 986.11904359 -18.5091511 986.76581636 C-16.65076827 988.64807532 -16.65076827 988.64807532 -13.7980957 990.82568359 C-11.78578169 990.61291844 -11.78578169 990.61291844 -9.7980957 989.82568359 C-8.64180664 989.41833984 -7.48551758 989.01099609 -6.29418945 988.59130859 C-4.94004991 988.08952764 -3.58724413 987.58413671 -2.2355957 987.07568359 C-1.51887695 986.80691406 -0.8021582 986.53814453 -0.0637207 986.26123047 C4.82494557 984.40494157 9.56245975 982.33096477 14.2956543 980.10693359 C18.55718114 978.22819595 22.92386998 976.66075029 27.29516602 975.05834961 C31.22050639 973.60674773 35.03664435 972.04650649 38.8269043 970.26318359 C44.0280522 967.81880027 49.37164355 965.96229603 54.7956543 964.07568359 C57.85079244 962.95453198 60.75929298 961.71044186 63.7019043 960.32568359 C67.79912472 958.39757987 71.9246732 956.81341615 76.2019043 955.32568359 C81.23091767 953.56986427 86.01917282 951.59752529 90.83862305 949.34130859 C102.72353603 943.98550576 114.86732554 939.200769 127.18237305 934.93505859 C131.0162582 933.52649018 134.66495781 931.81365841 138.3581543 930.07568359 C141.59084374 928.6547212 144.86692543 927.48567624 148.2019043 926.32568359 C153.38755087 924.51976519 158.35919872 922.50373312 163.3112793 920.13427734 C166.66464991 918.6161974 170.06850138 917.26368795 173.48999023 915.9074707 C176.16830519 914.83908634 178.8347507 913.74556988 181.4987793 912.64208984 C190.65345557 908.85577879 199.78810627 905.18739034 209.15112305 901.94677734 C213.10913392 900.49229704 216.90166196 898.76189359 220.7019043 896.93896484 C223.48307218 895.70047602 226.30988021 894.77189786 229.2019043 893.82568359 C229.23318582 837.75676325 229.25284431 781.68784114 229.26376104 725.61891317 C229.26440194 722.33775552 229.26506096 719.05659787 229.26572037 715.77544022 C229.28841839 600.95051448 229.21648394 486.12624905 228.71092576 284.60395956 C228.70187168 281.31382978 228.69283591 278.02369994 228.68380213 274.7335701 C228.53275041 219.76424579 228.37280003 164.7949498 228.2019043 109.82568359 C226.98720459 109.33688721 225.77250488 108.84809082 224.52099609 108.34448242 C219.96694171 106.51116952 215.41419589 104.67462571 210.86181641 102.8371582 C208.90025181 102.04592669 206.93834457 101.25554404 204.97607422 100.46606445 C185.19860033 92.50775796 185.19860033 92.50775796 177.22266674 88.75779629 C174.13284324 87.33256013 170.98281004 86.178062 167.78393555 85.01708984 C158.96283202 81.77154846 150.23429869 78.30619219 141.50927734 74.81176758 C138.87617593 73.75788904 136.24125186 72.70866166 133.60620117 71.65966797 C125.7873452 68.53749358 118.02729315 65.37005884 110.39208984 61.81616211 C107.40880797 60.46701769 104.36349555 59.37749638 101.2644043 58.32568359 C95.92886007 56.51043161 90.76255939 54.41113174 85.56738281 52.22607422 C82.00969263 50.74570346 78.4358046 49.30948072 74.85424805 47.88818359 C74.22434464 47.63782349 73.59444122 47.38746338 72.94544983 47.1295166 C70.36101858 46.1028643 67.77614718 45.07735054 65.18994141 44.05517578 C57.89451852 41.1696385 50.68196487 38.17955654 43.55908203 34.88427734 C40.51674833 33.51798434 37.42148958 32.3971792 34.2644043 31.32568359 C28.91309119 29.50506674 23.72419019 27.40752502 18.51318359 25.21679688 C12.7153011 22.78102791 6.89608338 20.39751901 1.0769043 18.01318359 C-0.1399707 17.51109375 -1.3568457 17.00900391 -2.6105957 16.49169922 C-4.34696289 15.78110352 -4.34696289 15.78110352 -6.1184082 15.05615234 C-7.68486084 14.41262817 -7.68486084 14.41262817 -9.28295898 13.75610352 C-13.93963931 12.03346629 -14.89976252 13.6921282 -18.27635401 17.04192495 Z " fill="#FCFDFE" transform="translate(768.798095703125,4.17431640625)"/>
<path d="M0 0 C0 133.32 0 266.64 0 404 C-10.87351245 395.84486567 -21.61659391 387.53063746 -32.33862305 379.17822266 C-36.77400336 375.72477779 -41.22297308 372.29066512 -45.6875 368.875 C-50.25634151 365.36974363 -54.764269 361.79829428 -59.25 358.1875 C-65.31200151 353.30804059 -71.46750858 348.5644204 -77.66308594 343.85620117 C-82.95479436 339.8249099 -88.15776969 335.69511763 -93.3359375 331.51953125 C-98.00059014 327.77009527 -102.73513532 324.12097448 -107.5 320.5 C-113.61038393 315.85630202 -119.63744132 311.12397381 -125.61499023 306.31079102 C-130.08683222 302.71510388 -134.61072037 299.19542965 -139.16821289 295.70922852 C-143.03139287 292.75205972 -146.86615348 289.7610054 -150.6875 286.75 C-156.10874665 282.47892332 -161.54946072 278.23362929 -167 274 C-172.9051106 269.41271232 -178.7969281 264.80942811 -184.671875 260.18359375 C-189.43374633 256.43744268 -194.21531987 252.71695789 -199 249 C-204.34487747 244.84785525 -209.68232498 240.68693181 -215 236.5 C-222.51050774 230.58782083 -230.05824397 224.72379466 -237.60644531 218.85986328 C-241.78052063 215.61648244 -245.95263872 212.3705853 -250.125 209.125 C-251.64842912 207.94009339 -253.17186582 206.75519653 -254.6953125 205.5703125 C-255.796875 204.71354167 -256.8984375 203.85677083 -258 203 C-256.91191944 199.73575831 -256.39600227 199.27413934 -253.74609375 197.3203125 C-253.06474365 196.81040771 -252.38339355 196.30050293 -251.68139648 195.77514648 C-250.57066772 194.95832397 -250.57066772 194.95832397 -249.4375 194.125 C-243.50010341 189.67961917 -237.66124836 185.15486718 -231.9375 180.4375 C-226.08073291 175.62614674 -220.09701827 171.03388066 -214.00634766 166.52368164 C-208.47168004 162.40418179 -203.11967981 158.08612297 -197.78466797 153.71264648 C-192.2130251 149.15111146 -186.5336895 144.75536548 -180.80908203 140.38671875 C-177.21286142 137.6301016 -173.63860911 134.8451248 -170.0625 132.0625 C-169.2905127 131.46187744 -168.51852539 130.86125488 -167.72314453 130.24243164 C-162.57990748 126.23761216 -157.44993548 122.21631403 -152.32836914 118.18383789 C-147.56647848 114.43752604 -142.78474422 110.71706158 -138 107 C-130.31203286 101.02685416 -122.64878722 95.02319602 -115 89 C-106.5823096 82.37131523 -98.14239362 75.77238628 -89.68164062 69.19873047 C-82.76763784 63.82461108 -75.87987433 58.41769964 -69 53 C-60.5823096 46.37131523 -52.14239362 39.77238628 -43.68164062 33.19873047 C-35.5290911 26.86191288 -27.41257149 20.47975287 -19.3046875 14.0859375 C-1.43127115 0 -1.43127115 0 0 0 Z " fill="#FDFEFE" transform="translate(754,304)"/>
<path d="M0 0 C4.07032189 2.03516094 6.69190272 4.42906428 9.8125 7.625 C10.30814453 8.12128906 10.80378906 8.61757813 11.31445312 9.12890625 C14.06557973 11.91189919 16.68726261 14.77177188 19.2364502 17.74084473 C22.79668243 21.82182813 26.54116829 25.66954242 30.38476562 29.48242188 C31.08655441 30.1827504 31.7883432 30.88307892 32.51139832 31.60462952 C34.02163088 33.11108354 35.53301659 34.61638226 37.04545593 36.12062073 C39.44470583 38.50699953 41.84072388 40.89658216 44.23596191 43.2869873 C49.321165 48.36081378 54.41028695 53.43069815 59.5 58.5 C65.40222504 64.37855544 71.30279452 70.25875291 77.19914246 76.14320374 C79.54952954 78.48715071 81.9029287 80.82804378 84.25646973 83.16882324 C85.70954057 84.61825855 87.16246951 86.06783614 88.61523438 87.51757812 C89.26167404 88.15885147 89.90811371 88.80012482 90.57414246 89.46083069 C94.34722214 93.23347699 97.90773827 97.13197367 101.39582253 101.16899872 C103.48364662 103.55203218 105.68239713 105.80227702 107.92553711 108.0390625 C108.82594223 108.93939209 109.72634735 109.83972168 110.65403748 110.76733398 C111.61175145 111.7199444 112.56952147 112.67249848 113.52734375 113.625 C114.52647028 114.62225677 115.5253728 115.61973802 116.52406311 116.61743164 C119.1274695 119.21705679 121.7338667 121.81366231 124.34094238 124.40960693 C127.01104274 127.06939763 129.67824277 129.7320934 132.34570312 132.39453125 C137.56100038 137.59916888 142.77946716 142.8006134 148 148 C146.30705109 151.60818899 144.31792155 153.90064303 141.45703125 156.703125 C140.09288086 158.05083984 140.09288086 158.05083984 138.70117188 159.42578125 C137.73865469 160.36756931 136.77576181 161.30897355 135.8125 162.25 C128.45936311 169.39440746 128.45936311 169.39440746 121.54296875 176.953125 C116.38794996 182.98222575 110.61295754 188.44217946 104.97021484 194.00927734 C98.0655138 200.78314684 98.0655138 200.78314684 91.5625 207.9375 C86.05766671 214.38073225 79.84989699 220.20335153 73.82470703 226.15478516 C66.44933819 233.3759325 66.44933819 233.3759325 59.5 241 C54.02282958 247.42681413 47.82819858 253.22478432 41.82470703 259.15478516 C36.30245832 264.61547756 30.84229622 270.05950446 25.80175781 275.97558594 C21.34019699 280.98849411 16.43975078 285.60674873 11.66308594 290.31640625 C10.25517685 291.70632591 8.85019602 293.09920977 7.4453125 294.4921875 C6.61531738 295.31058105 5.78532227 296.12897461 4.93017578 296.97216797 C2.9517258 298.85260529 2.9517258 298.85260529 2 301 C1.34 301 0.68 301 0 301 C0 201.67 0 102.34 0 0 Z " fill="#FDFDFE" transform="translate(113,357)"/>
<path d="M0 0 C0.66 0.33 1.32 0.66 2 1 C0.73046875 2.49739583 -0.5390625 3.99479167 -1.80859375 5.4921875 C-3.0878152 7.00594079 -3.0878152 7.00594079 -4 9 C-4.66 7.68 -5.32 6.36 -6 5 C-4.02 3.35 -2.04 1.7 0 0 Z " fill="#C9E0F0" transform="translate(502,500)"/>
</svg>
